/* XPM */
static char * analysis_xpm[] = {
"38 32 25 1",
" 	c #FFFFFF",
".	c #000000",
"+	c #BFBFBF",
"@	c #3F3F3F",
"#	c #7F7F7F",
"$	c #3300FF",
"%	c #0014FF",
"&	c #00BBFF",
"*	c #00FFCC",
"=	c #008BFF",
"-	c #E1FF00",
";	c #00FF0D",
">	c #00FF85",
",	c #69FF00",
"'	c #FF2F00",
")	c #22FF00",
"!	c #FFEE00",
"~	c #FF7700",
"{	c #FF0000",
"]	c #FFA700",
"^	c #99FF00",
"/	c #00FF55",
"(	c #00FFFC",
"_	c #0044FF",
":	c #6200FF",
"                                      ",
"     .                                ",
"     .                                ",
"    ..    $$                      {   ",
"     .   =                        '   ",
"     .       $                    '   ",
"    ..  $ $                       ~   ",
"     .  %= $                      ]   ",
"     .  $ $% %                    !   ",
"    ..    $                       -   ",
"     .   *$$  $                   ^   ",
"     .  =$==$                     ^   ",
"    @.  $$=$$      $              ,   ",
"     . $%=%=%$                    )   ",
"     .  %%& $                     ;   ",
"    #. $&=;=%  $                  /   ",
"     .  %>%=$$$ $                 >   ",
"     .  =>&%*%               $    *   ",
"    #. $*&'=%$%$                  *   ",
"     . =&->> %                  $ (   ",
"     . %>;,>&= $$$       $$       &   ",
"    .. $;,{>%$*%& $$         $    =   ",
"     . %-!-,=$$  $$$$    $        _   ",
"     . *,!%*=$*$&   $   $ $ $ $   %   ",
"    #. -'=,&%$&$ %=      $        %   ",
"     . **);%* =%$ $             $ $   ",
"     .                                ",
"    ................................. ",
"     .    .   .  .  .  .  .  .  .     ",
"                                      ",
"                                      ",
"                                      "};
