/* XPM */
static char * b_configure_xpm[] = {
"16 16 36 1",
" 	c None",
".	c #000000",
"+	c #FFFFFF",
"@	c #FEFEFE",
"#	c #FDFDFD",
"$	c #FBFBFB",
"%	c #C8C8C8",
"&	c #807F7A",
"*	c #A2A09B",
"=	c #97958F",
"-	c #898781",
";	c #8E8C85",
">	c #838078",
",	c #7B7973",
"'	c #67655F",
")	c #403F3B",
"!	c #686661",
"~	c #7C7A72",
"{	c #6E6D6B",
"]	c #9A9992",
"^	c #53524E",
"/	c #171614",
"(	c #767573",
"_	c #9B9993",
":	c #54524C",
"<	c #7C7B76",
"[	c #86847D",
"}	c #9A9996",
"|	c #B7B6B3",
"1	c #7D7B75",
"2	c #8E8C87",
"3	c #6D6B66",
"4	c #78756C",
"5	c #605E57",
"6	c #55544E",
"7	c #42413C",
"................",
".+@@@@@@#++++++.",
".+@+++++++$++++.",
".+@++++++++++++.",
".+@+++...%%%+++.",
".+@+...&...%+++.",
".+#+.*=-;>.%%++.",
".+#..,')!~..%++.",
".+#.{]^/(_:.%++.",
".+#..<[}|1..%++.",
".+#+.23456.%%++.",
".+#+...7...%+++.",
".+#+++...%%%+++.",
".+++++%%%%+++++.",
".++++++++++++++.",
"................"};
