/* XPM */
static char *bld_stop[] = {
/* columns rows colors chars-per-pixel */
"16 16 117 2",
"   c black",
".  c #0C0300",
"X  c #130601",
"o  c #120703",
"O  c #180B04",
"+  c #361103",
"@  c #3A1303",
"#  c #4B1906",
"$  c #4E1A05",
"%  c #571F06",
"&  c #54200A",
"*  c #6D2307",
"=  c #643119",
"-  c #67331A",
";  c #712407",
":  c #752707",
">  c #7A2807",
",  c #842C09",
"<  c #882E0A",
"1  c #8F320B",
"2  c #8E3A17",
"3  c #95360B",
"4  c #99370B",
"5  c #9E340A",
"6  c #9E350B",
"7  c #9F350B",
"8  c #923A13",
"9  c #A1360B",
"0  c #A5370B",
"q  c #A03B0B",
"w  c #A6380C",
"e  c #A9390D",
"r  c #A93A0D",
"t  c #AD3B0D",
"y  c #AE3C0D",
"u  c #AF3E0F",
"i  c #B13D0D",
"p  c #B33F0D",
"a  c #B43F0E",
"s  c #AA4516",
"d  c #BC440F",
"f  c #B14F1F",
"g  c #BB4512",
"h  c #BF471B",
"j  c #B45525",
"k  c #B75727",
"l  c #C3470E",
"z  c #C4480F",
"x  c #C6480F",
"c  c #CA4B0F",
"v  c #C24014",
"b  c #C64115",
"n  c #C74316",
"m  c #C8441F",
"M  c #CD421C",
"N  c #CD461E",
"B  c #CC4C10",
"V  c #CD4C10",
"C  c #CE4D10",
"Z  c #CE4E11",
"A  c #CA4B1E",
"S  c #CD4C1F",
"D  c #D5461F",
"F  c #DB4B17",
"G  c #D84D14",
"H  c #DD4D16",
"J  c #DD4D17",
"K  c #D35213",
"L  c #D75112",
"P  c #C64B23",
"I  c #CE4F21",
"U  c #CE5023",
"Y  c #CF5328",
"T  c #D24A25",
"R  c #D44A25",
"E  c #D64B25",
"W  c #D04F2A",
"Q  c #D24C28",
"!  c #D64F2A",
"~  c #D84723",
"^  c #D25225",
"/  c #D65320",
"(  c #D65223",
")  c #D85323",
"_  c #D9522D",
"`  c #D15C35",
"'  c #D25E36",
"]  c #D95C37",
"[  c #E05713",
"{  c #E15914",
"}  c #E55913",
"|  c #E75D17",
" . c #E15B19",
".. c #C96A41",
"X. c #EADDD7",
"o. c #F2D9D2",
"O. c #F4DDD3",
"+. c #F5DED3",
"@. c #EAE1DC",
"#. c #F0E3DD",
"$. c #F6E3DB",
"%. c #F5E5DE",
"&. c #EFE5E0",
"*. c #EEE6E2",
"=. c #F5E8E2",
"-. c #F5EAE5",
";. c #F0EBE8",
":. c #F2EDEA",
">. c #F7EDE9",
",. c #F8EEEA",
"<. c #F5F0EE",
"1. c #FAF3EF",
"2. c #F8F3F1",
"3. c gray99",
"4. c #FDFDFD",
"5. c gray100",
"6. c None",
/* pixels */
"6.6.6.6.6.6.6.6.6.6.6.6.6.6.6.6.",
"6.6.6.6.                6.6.6.6.",
"6.6.6.    - j L C q %     6.6.6.",
"6.6.  O j | } L L C z 3 X   6.6.",
"6.    j { I A H G S P g 1     6.",
"6.  =  .) *.*.Y I @.2.! a $   6.",
"6.  s H / #.5.-.:.5.1._ a <   6.",
"6.  c G F / ,.5.5.O.] D i 0   6.",
"6.  x V Z I :.5.5.$.` b t 9   6.",
"6.  3 x N X.5.O.O.5.>.R e >   6.",
"6.  % g P o.=.` ..=.>.~ 7 @   6.",
"6.    8 v R E b h W T M ;     6.",
"6.6.  X 2 u y t e w 7 * .   6.6.",
"6.6.6.    # , 9 6 : +     6.6.6.",
"6.6.6.6.                6.6.6.6.",
"6.6.6.6.6.6.6.6.6.6.6.6.6.6.6.6."
};
