/* XPM */
static char * Cgreen_xpm[] = {
"16 16 46 1",
" 	c None",
".	c #021F00",
"+	c #065D00",
"@	c #1A8F11",
"#	c #1F9316",
"$	c #087800",
"%	c #054800",
"&	c #022800",
"*	c #2B9C22",
"=	c #289A20",
"-	c #148A0B",
";	c #087000",
">	c #022500",
",	c #27991E",
"'	c #1C9113",
")	c #1E9215",
"!	c #1B9012",
"~	c #198E10",
"{	c #118707",
"]	c #076B00",
"^	c #065900",
"/	c #229519",
"(	c #209417",
"_	c #0C8303",
":	c #044000",
"<	c #0D8404",
"[	c #23961A",
"}	c #076500",
"|	c #188D0E",
"1	c #0A8101",
"2	c #158B0C",
"3	c #13890A",
"4	c #097E00",
"5	c #087600",
"6	c #097C00",
"7	c #087400",
"8	c #043700",
"9	c #065300",
"0	c #087200",
"a	c #087A00",
"b	c #055100",
"c	c #022200",
"d	c #043F00",
"e	c #076000",
"f	c #065800",
"g	c #033400",
"                ",
"    ........    ",
"   ..+@#@$%..   ",
"  .&@*=##@-;>.  ",
" ..@,'@#)!~{].. ",
" .^=/''('''(_:. ",
" .<#/''///'[_}. ",
" .|))/'///*@1$. ",
" .2~!''///,345. ",
" .;2|'''''''6^. ",
" .%{~''''''!78. ",
" ..7{'#3-#!29.. ",
"  .>01146a7bc.  ",
"   ..de57fg..   ",
"    ........    ",
"                "};
