/* XPM */
static char * configure_acq_xpm[] = {
"23 23 117 2",
"  	c None",
". 	c #565656",
"+ 	c #4B4B4B",
"@ 	c #5B5B5B",
"# 	c #5E5E5E",
"$ 	c #555555",
"% 	c #5C5C5C",
"& 	c #4D4D4D",
"* 	c #4A4A4A",
"= 	c #8C8C8C",
"- 	c #8B8B8B",
"; 	c #8E8E8E",
"> 	c #474747",
", 	c #808080",
"' 	c #8F8F8F",
") 	c #424242",
"! 	c #858585",
"~ 	c #525252",
"{ 	c #757575",
"] 	c #373737",
"^ 	c #333333",
"/ 	c #484848",
"( 	c #4C4C4C",
"_ 	c #3A3A3A",
": 	c #848484",
"< 	c #6C6C6C",
"[ 	c #282828",
"} 	c #4F4F4F",
"| 	c #C6C6C6",
"1 	c #8D8D8D",
"2 	c #545454",
"3 	c #838383",
"4 	c #222222",
"5 	c #1E1E1E",
"6 	c #585858",
"7 	c #ECECEC",
"8 	c #CACACA",
"9 	c #3D3D3D",
"0 	c #343434",
"a 	c #D5D5D5",
"b 	c #4E4E4E",
"c 	c #515151",
"d 	c #FDFDFD",
"e 	c #FEFEFE",
"f 	c #353535",
"g 	c #F6F6F6",
"h 	c #989898",
"i 	c #363636",
"j 	c #323232",
"k 	c #414141",
"l 	c #FBFBFB",
"m 	c #FFFFFF",
"n 	c #DBDBDB",
"o 	c #303030",
"p 	c #D3D3D3",
"q 	c #E1E1E1",
"r 	c #A6A6A6",
"s 	c #606060",
"t 	c #DFDFDF",
"u 	c #D9D9D9",
"v 	c #494949",
"w 	c #404040",
"x 	c #393939",
"y 	c #E6E6E6",
"z 	c #E2E2E2",
"A 	c #C7C7C7",
"B 	c #BEBEBE",
"C 	c #1F1F1F",
"D 	c #A9A9A9",
"E 	c #F5F5F5",
"F 	c #616161",
"G 	c #252525",
"H 	c #BFBFBF",
"I 	c #9F9F9F",
"J 	c #919191",
"K 	c #A5A5A5",
"L 	c #2B2B2B",
"M 	c #313131",
"N 	c #3C3C3C",
"O 	c #D4D4D4",
"P 	c #2C2C2C",
"Q 	c #2E2E2E",
"R 	c #5F5F5F",
"S 	c #D2D2D2",
"T 	c #505050",
"U 	c #272727",
"V 	c #3E3E3E",
"W 	c #575757",
"X 	c #636363",
"Y 	c #7C7C7C",
"Z 	c #212121",
"` 	c #F1F1F1",
" .	c #B2B2B2",
"..	c #2F2F2F",
"+.	c #6E6E6E",
"@.	c #818181",
"#.	c #E0E0E0",
"$.	c #CCCCCC",
"%.	c #969696",
"&.	c #B0B0B0",
"*.	c #AAAAAA",
"=.	c #B3B3B3",
"-.	c #DEDEDE",
";.	c #FAFAFA",
">.	c #E3E3E3",
",.	c #464646",
"'.	c #C4C4C4",
").	c #383838",
"!.	c #676767",
"~.	c #A0A0A0",
"{.	c #DADADA",
"].	c #2A2A2A",
"^.	c #B9B9B9",
"/.	c #3B3B3B",
"(.	c #CBCBCB",
"_.	c #B8B8B8",
":.	c #6D6D6D",
"    . +     @ # @ $ % $             & * &     ",
"  #   = - ;                               >   ",
"  ,   ; '                                   ) ",
"& ! =                 ~     { ] ^           / ",
"( !               _ : < [   } | _ # 1       2 ",
"& 3         4 5 6 7 8 9 / 0 a =             } ",
"b           4 c d e +     f g h     ) i       ",
"b         j k l m n f     o p q % c r s       ",
"b         o . t u v 9 w   x y d m z A o       ",
"&       i _ B x C D E F G H 7 % I J ^         ",
"&     0 = K L M   N O l k P 9                 ",
"b       Q - 0       i J R S f                 ",
"T         U V W X ( Y Z ` m  .[               ",
"}         ..+.@.w #.$.Z %.m m &.^             ",
"T       Q *.=.-.;.>.,.  ..@.m m '.w           ",
"}       ).!.o f ~.{.f     ].^.m m y )         ",
"}       i /.    k m w       L B m m v         ",
"T             w +.(.i         )._.:.0         ",
"~             /.^._             f 9         2 ",
"}             P L                           . ",
"(                                           } ",
"  N                                           ",
"    ,.    /                                   "};
