/* XPM */
static char * configure_acq_dis_xpm[] = {
"23 23 69 1",
" 	c None",
".	c #5E5E5E",
"+	c #4C4C4C",
"@	c #5F5F5F",
"#	c #626262",
"$	c #5D5D5D",
"%	c #555555",
"&	c #595959",
"*	c #4E4E4E",
"=	c #4A4A4A",
"-	c #494949",
";	c #8C8C8C",
">	c #8B8B8B",
",	c #8E8E8E",
"'	c #474747",
")	c #515151",
"!	c #818181",
"~	c #8A8A8A",
"{	c #424242",
"]	c #4D4D4D",
"^	c #868686",
"/	c #525252",
"(	c #777777",
"_	c #3A3A3A",
":	c #333333",
"<	c #2E2E2E",
"[	c #2F2F2F",
"}	c #343434",
"|	c #262626",
"1	c #292929",
"2	c #2C2C2C",
"3	c #5B5B5B",
"4	c #8D8D8D",
"5	c #858585",
"6	c #222222",
"7	c #1E1E1E",
"8	c #282828",
"9	c #2A2A2A",
"0	c #484848",
"a	c #2B2B2B",
"b	c #6B6B6B",
"c	c #4F4F4F",
"d	c #232323",
"e	c #272727",
"f	c #3D3D3D",
"g	c #252525",
"h	c #313131",
"i	c #323232",
"j	c #2D2D2D",
"k	c #3F3F3F",
"l	c #212121",
"m	c #242424",
"n	c #1C1C1C",
"o	c #1D1D1D",
"p	c #575757",
"q	c #505050",
"r	c #666666",
"s	c #1B1B1B",
"t	c #454545",
"u	c #303030",
"v	c #6A6A6A",
"w	c #181818",
"x	c #383838",
"y	c #3E3E3E",
"z	c #404040",
"A	c #393939",
"B	c #545454",
"C	c #565656",
"D	c #464646",
"  .+  @#$%@&      *=-  ",
" $ ;>,               ' ",
")!~,,                 {",
"]^;        /  (_:      ",
"+^       <[}| 1 234    ",
"]5    678  90ab}      c",
"*     62  d  e f  _9   ",
"*    :a   g >h  h9i|   ",
"*    1a  ajk a     9   ",
"]   lm an  o|p 9ml9    ",
"]  <} 6} j  <79        ",
"*   g8m  q|:e 2        ",
"q    m{@r8}s   8       ",
"c    at'6  l    u      ",
"q   g&v   6 j    2     ",
"c   wxuh  x  |    i    ",
"c   _y  6 7   l   o    ",
"q      zh 9    : A}    ",
"q      a m      }f    B",
"c      a7             C",
"+                      ",
" A                     ",
"  D  '                 "};
