/* XPM */
static char * Cred_xpm[] = {
"16 16 74 1",
" 	c None",
".	c #000000",
"+	c #67331A",
"@	c #B45525",
"#	c #D75112",
"$	c #CE4D10",
"%	c #A03B0B",
"&	c #571F06",
"*	c #180B04",
"=	c #E75D17",
"-	c #E55913",
";	c #C4480F",
">	c #95360B",
",	c #130601",
"'	c #E15914",
")	c #CE4F21",
"!	c #CA4B1E",
"~	c #DD4D16",
"{	c #D84D14",
"]	c #CD4C1F",
"^	c #C64B23",
"/	c #BB4512",
"(	c #8F320B",
"_	c #643119",
":	c #E15B19",
"<	c #D85323",
"[	c #CF5328",
"}	c #D64F2A",
"|	c #B43F0E",
"1	c #4E1A05",
"2	c #AA4516",
"3	c #D65320",
"4	c #FB4506",
"5	c #D9522D",
"6	c #882E0A",
"7	c #CA4B0F",
"8	c #DB4B17",
"9	c #D95C37",
"0	c #D5461F",
"a	c #B13D0D",
"b	c #A5370B",
"c	c #C6480F",
"d	c #CD4C10",
"e	c #CE4E11",
"f	c #D15C35",
"g	c #C64115",
"h	c #AD3B0D",
"i	c #A1360B",
"j	c #CD461E",
"k	c #D44A25",
"l	c #A9390D",
"m	c #7A2807",
"n	c #D84723",
"o	c #9F350B",
"p	c #3A1303",
"q	c #923A13",
"r	c #C24014",
"s	c #D64B25",
"t	c #BF471B",
"u	c #D04F2A",
"v	c #D24A25",
"w	c #CD421C",
"x	c #712407",
"y	c #8E3A17",
"z	c #AF3E0F",
"A	c #AE3C0D",
"B	c #A6380C",
"C	c #6D2307",
"D	c #0C0300",
"E	c #4B1906",
"F	c #842C09",
"G	c #9E350B",
"H	c #752707",
"I	c #361103",
"                ",
"    ........    ",
"   ..+@#$%&..   ",
"  .*@=-##$;>,.  ",
" ..@')!~{]^/(.. ",
" ._:<))[)))}|1. ",
" .2~3))444)5|6. ",
" .7{83)44490ab. ",
" .cde))444fghi. ",
" .>cj))))))klm. ",
" .&/^))))))nop. ",
" ..qrksgtuvwx.. ",
"  .,yzAhlBoCD.  ",
"   ..EFiGHI..   ",
"    ........    ",
"                "};
