/* XPM */
static char * Cwhite_xpm[] = {
"16 16 35 1",
" 	c None",
".	c #000000",
"+	c #9F9F9F",
"@	c #B5B5B5",
"#	c #B9B9B9",
"$	c #B6B6B6",
"%	c #AAAAAA",
"&	c #969696",
"*	c #868686",
"=	c #BEBEBE",
"-	c #DCDCDC",
";	c #B4B4B4",
">	c #A7A7A7",
",	c #4F4947",
"'	c #BCBCBC",
")	c #FBFBFB",
"!	c #B2B2B2",
"~	c #A5A5A5",
"{	c #9E9E9E",
"]	c #BDBDBD",
"^	c #AFAFAF",
"/	c #949494",
"(	c #FFFFFF",
"_	c #A3A3A3",
":	c #ABABAB",
"<	c #A9A9A9",
"[	c #8E8E8E",
"}	c #A8A8A8",
"|	c #9D9D9D",
"1	c #AEAEAE",
"2	c #9C9C9C",
"3	c #0C0300",
"4	c #939393",
"5	c #A2A2A2",
"6	c #8D8D8D",
"                ",
"    ........    ",
"   ..+@#$%&..   ",
"  .*@=----;>,.  ",
" ..@'--))--!~.. ",
" .{]-))))))-^/. ",
" .^--)(((()--_. ",
" .@-))(((())-:. ",
" .;-))(((())-%. ",
" .>--)(((()--+. ",
" .&!-))))))-<[. ",
" ..};--))--#|.. ",
"  .,}1----<23.  ",
"   ..45%<{6..   ",
"    ........    ",
"                "};
