/* XPM */
static char * Cyellow_xpm[] = {
"16 16 72 1",
" 	c None",
".	c #000000",
"+	c #868C24",
"@	c #C7D12B",
"#	c #E0EC1E",
"$	c #E0ED13",
"%	c #BBC60E",
"&	c #828709",
"*	c #454A0C",
"=	c #E0EB31",
"-	c #E2ED29",
";	c #DFE612",
">	c #B6BC0E",
",	c #302A03",
"'	c #E0EC2A",
")	c #DEDC32",
"!	c #DFDD29",
"~	c #E8EA2A",
"{	c #E8EB21",
"]	c #DFDD2D",
"^	c #DAD430",
"/	c #D6DD15",
"(	c #B0B60E",
"_	c #848A22",
":	c #DDE830",
"<	c #DFDD3B",
"[	c #D9D73D",
"}	c #DBD243",
"|	c #D0D711",
"1	c #7C7E08",
"2	c #C6CC1A",
"3	c #DFE135",
"4	c #FBF925",
"5	c #DDD447",
"6	c #AFB10D",
"7	c #DEEB11",
"8	c #E9E729",
"9	c #DDD84F",
"0	c #E1D733",
"a	c #D2D410",
"b	c #C8CA0E",
"c	c #E5ED13",
"d	c #DFEC16",
"e	c #D6D54E",
"f	c #E6E318",
"g	c #CED010",
"h	c #C4C60E",
"i	c #E0DA2C",
"j	c #DDD33B",
"k	c #CACC10",
"l	c #A4A60A",
"m	c #DFD23B",
"n	c #C2C40E",
"o	c #6D6E06",
"p	c #B1B618",
"q	c #E1DE17",
"r	c #DDD43D",
"s	c #DDDB1F",
"t	c #D8CF40",
"u	c #DCD33A",
"v	c #E2D728",
"w	c #9B9C0A",
"x	c #ACB11D",
"y	c #D0D212",
"z	c #D0D210",
"A	c #C9CB0F",
"B	c #96980A",
"C	c #0C0300",
"D	c #7B7C0A",
"E	c #ACAE0C",
"F	c #9FA00A",
"G	c #696A06",
"                ",
"    ........    ",
"   ..+@#$%&..   ",
"  .*@=-##$;>,.  ",
" ..@')!~{]^/(.. ",
" ._:<))[)))}|1. ",
" .2~3))444)5|6. ",
" .7{83)44490ab. ",
" .;cd))444efgh. ",
" .>;i))))))jkl. ",
" .&/^))))))mno. ",
" ..pqjrfstuvw.. ",
"  .,xyzgkAnBC.  ",
"   ..DEhnFG..   ",
"    ........    ",
"                "};
