/* XPM */
static char *xMwV72JB[] = {
/* columns rows colors chars-per-pixel */
"32 26 21 1 ",
"  c #232323",
". c #242423",
"X c gray14",
"o c #252525",
"O c #F30505",
"+ c #F50504",
"@ c #F70404",
"# c #F40605",
"$ c #F80303",
"% c #F90303",
"& c #FA0202",
"* c #FB0202",
"= c #FB0302",
"- c #FA0303",
"; c #FE0101",
": c #FF0101",
"> c #FD0201",
", c #FC0202",
"< c #FD0202",
"1 c #F80403",
"2 c None",
/* pixels */
"22222222222222222222222222222222",
"22222 X2222222222222222122222222",
"22222 X222222222222222::22222222",
"22222XX22222222222222:::22<22222",
"22222X 2222222222222::222:<22222",
"22222  222222222222::2222::22222",
"22222 X22222222222::22@22::22222",
"22222 X2222222222::221:22::22222",
"22222XX22222222@:=222::22:-22222",
"22222X 2222222-:-22:2::22:<22222",
"22222  222222::122::2::22::22222",
"22222 X22222::@222::2-:22::22222",
"22222 X2222::222:2::2::22::22222",
"22222X 222::222:@2::2::22:=22222",
"22222X 22::222@:-2::2::22:=22222",
"22222 .22:22:2:::2::2=:22::22222",
"22222 X2222::2:::2::2-:22::22222",
"22222XX2222::21::2::2::22::22222",
"22222X 22:2::2O:12::2::22:=22222",
"22222  2::2::2@:-2::2::22::22222",
"22222 X2::2::2:::2::2::22::22222",
"22222 X2:-2-:22:=2=:21:22:-22222",
"22222XX2222222222222222222222222",
"22222X   XXX  XX   XX   XX  2222",
"22222222222222222222222222222222",
"22222222222222222222222222222222"
};
