/* XPM */
static char *W8HTBlAS[] = {
/* columns rows colors chars-per-pixel */
"32 26 30 1 ",
"  c #232323",
". c #242423",
"X c gray14",
"o c #252525",
"O c #05F30F",
"+ c #03F70E",
"@ c #07F60C",
"# c #07F70C",
"$ c #05F40F",
"% c #0AF00D",
"& c #0BF00D",
"* c #03F80D",
"= c #02F90D",
"- c #03F90D",
"; c #01FB0D",
": c #03FB0C",
"> c #02FA0D",
", c #02FB0D",
"< c #02F80E",
"1 c #03F80E",
"2 c #02F90E",
"3 c #04F80D",
"4 c #01FD0C",
"5 c #01FC0D",
"6 c #01FD0D",
"7 c #00FE0C",
"8 c #01FE0C",
"9 c #00FF0C",
"0 c #01FF0C",
"q c None",
/* pixels */
"qqqqqqqqqqqqqqqqqqqqqqqqqqqqqqqq",
"qqqqq Xqqqqqqqqqqqqqqqq,qqqqqqqq",
"qqqqq Xqqqqqqqqqqqqqqq99qqqqqqqq",
"qqqqqXXqqqqqqqqqqqqqq999qq9qqqqq",
"qqqqqX qqqqqqqqqqqqq99qqq99qqqqq",
"qqqqq  qqqqqqqqqqqq99qqqq99qqqqq",
"qqqqq Xqqqqqqqqqqq99qq$qq99qqqqq",
"qqqqq Xqqqqqqqqqq99qq39qq99qqqqq",
"qqqqqXXqqqqqqqqO9,qqq99qq9,qqqqq",
"qqqqqX qqqqqqq,92qq9q99qq99qqqqq",
"qqqqq  qqqqqq99,qq99q99qq99qqqqq",
"qqqqq Xqqqqq99$qqq99q,9qq99qqqqq",
"qqqqq Xqqqq99qqq$q99q99qq99qqqqq",
"qqqqqX qqq99qqq9&q99q99qq9,qqqqq",
"qqqqqX qq99qqq+93q99q99qq9,qqqqq",
"qqqqq .qq9qq,q999q99q,9qq99qqqqq",
"qqqqq Xqqqq39q999q99q,9qq99qqqqq",
"qqqqqXXqqqq99q29@q99q99qq99qqqqq",
"qqqqqX qq9q99qO9&q99q99qq9,qqqqq",
"qqqqq  q99q99q+93q99q99qq99qqqqq",
"qqqqq Xq99q39q999q99q99qq99qqqqq",
"qqqqq Xq9,q99qq93q,9q,9qq9,qqqqq",
"qqqqqXXqqqqqqqqqqqqqqqqqqqqqqqqq",
"qqqqqX   XX   XX   XX   XX  qqqq",
"qqqqqqqqqqqqqqqqqqqqqqqqqqqqqqqq",
"qqqqqqqqqqqqqqqqqqqqqqqqqqqqqqqq"
};
