/* XPM */
static char * displayON_xpm[] = {
"32 32 143 2",
"  	c None",
". 	c #0067AC",
"+ 	c #0F6FB1",
"@ 	c #0D5384",
"# 	c #0C5384",
"$ 	c #1D669A",
"% 	c #1C669A",
"& 	c #145C8F",
"* 	c #1472B2",
"= 	c #3184BC",
"- 	c #000000",
"; 	c #4B525B",
"> 	c #25292D",
", 	c #428EC1",
"' 	c #4A525B",
") 	c #2A7EB7",
"! 	c #5B5F66",
"~ 	c #5A5F66",
"{ 	c #737D8A",
"] 	c #666E78",
"^ 	c #3986BB",
"/ 	c #2D80B9",
"( 	c #292C30",
"_ 	c #5C6571",
": 	c #434850",
"< 	c #3D89BD",
"[ 	c #297DB6",
"} 	c #535961",
"| 	c #535960",
"1 	c #6E7987",
"2 	c #606974",
"3 	c #3784BA",
"4 	c #2E81BA",
"5 	c #2F3134",
"6 	c #606873",
"7 	c #474D54",
"8 	c #3F8ABF",
"9 	c #287CB6",
"0 	c #4D535C",
"a 	c #4C535C",
"b 	c #6A7584",
"c 	c #5B6470",
"d 	c #3683B9",
"e 	c #2F82BB",
"f 	c #F4F6F8",
"g 	c #E9ECEF",
"h 	c #EDEFF2",
"i 	c #F5F6F8",
"j 	c #EEF0F3",
"k 	c #E8EBEF",
"l 	c #E9ECF0",
"m 	c #408CC0",
"n 	c #FFFFFF",
"o 	c #FDFEFD",
"p 	c #F4FDF0",
"q 	c #FCFEFB",
"r 	c #F8FEF6",
"s 	c #A3F583",
"t 	c #6FF03D",
"u 	c #7FF152",
"v 	c #71F03F",
"w 	c #91F36B",
"x 	c #EEFDE8",
"y 	c #A5F586",
"z 	c #F7FEF5",
"A 	c #85F25B",
"B 	c #8EF367",
"C 	c #90F369",
"D 	c #FDFEFC",
"E 	c #ABF68E",
"F 	c #74F043",
"G 	c #88F25F",
"H 	c #59EE1F",
"I 	c #C5F9B1",
"J 	c #F5FEF1",
"K 	c #5DEE25",
"L 	c #DDFBD2",
"M 	c #60EE29",
"N 	c #F0FDEA",
"O 	c #74F044",
"P 	c #BDF8A7",
"Q 	c #83F258",
"R 	c #66EF31",
"S 	c #EAFCE3",
"T 	c #277BB5",
"U 	c #FEFEFE",
"V 	c #B7F79E",
"W 	c #7AF14C",
"X 	c #9BF478",
"Y 	c #96F472",
"Z 	c #C8F9B6",
"` 	c #FBFEFA",
" .	c #3884BA",
"..	c #3083BB",
"+.	c #B0F694",
"@.	c #81F255",
"#.	c #A2F582",
"$.	c #8FF367",
"%.	c #CAF9B8",
"&.	c #ECFDE5",
"*.	c #67EF32",
"=.	c #B3F799",
"-.	c #428DC0",
";.	c #C5F9B0",
">.	c #8DF365",
",.	c #A3F584",
"'.	c #C8F9B5",
").	c #D5FAC6",
"!.	c #F3FDEF",
"~.	c #64EF2E",
"{.	c #D1FAC1",
"].	c #62EF2C",
"^.	c #DBFBCE",
"/.	c #98F475",
"(.	c #6FF03C",
"_.	c #C9F9B6",
":.	c #6BEF37",
"<.	c #B9F7A1",
"[.	c #DAFBCD",
"}.	c #C4F9AF",
"|.	c #73F043",
"1.	c #ACF690",
"2.	c #E7FCDF",
"3.	c #ACF68F",
"4.	c #99F475",
"5.	c #A7F689",
"6.	c #DCFBD0",
"7.	c #C3F8AF",
"8.	c #E4FCDB",
"9.	c #DEFBD3",
"0.	c #AEF692",
"a.	c #0D6FB0",
"b.	c #468FC2",
"c.	c #458FC2",
"d.	c #4991C3",
"e.	c #4F95C5",
"f.	c #458FC1",
"g.	c #4690C2",
"h.	c #4E94C4",
"i.	c #4B92C3",
"j.	c #4790C2",
"k.	c #448DC0",
"l.	c #1271B2",
". . . . . . . . . . . . . . . . . . . . . . . . . . . . . . . . ",
". . . . . . . . . . . . . . . . . . . . . . . . . . . . . . . . ",
"+ @ # # # $ # # # # % # # # # & & # # # # % # # # # $ # # # @ * ",
"= - - - - ; - - - - ; - - - - > > - - - - ; - - - - ; - - - - , ",
"= - - - - ' - - - - ' - - - - > > - - - - ' - - - - ' - - - - , ",
"= - - - - ' - - - - ' - - - - > > - - - - ' - - - - ' - - - - , ",
"= - - - - ' - - - - ' - - - - > > - - - - ' - - - - ' - - - - , ",
") ! ~ ~ ~ { ~ ~ ~ ~ { ~ ~ ~ ~ ] ] ~ ~ ~ ~ { ~ ~ ~ ~ { ~ ~ ~ ~ ^ ",
"/ ( ( ( ( _ ( ( ( ( _ ( ( ( ( : : ( ( ( ( _ ( ( ( ( _ ( ( ( ( < ",
"= - - - - ' - - - - ' - - - - > > - - - - ' - - - - ' - - - - , ",
"= - - - - ' - - - - ' - - - - > > - - - - ' - - - - ' - - - - , ",
"= - - - - ' - - - - ' - - - - > > - - - - ' - - - - ' - - - - , ",
"= - - - - ' - - - - ' - - - - > > - - - - ' - - - - ' - - - - , ",
"[ } | | | 1 } | | | 1 } | | | 2 2 | | | } 1 | | | } 1 | | | | 3 ",
"4 5 5 5 5 6 5 5 5 5 6 5 5 5 5 7 7 5 5 5 5 6 5 5 5 5 6 5 5 5 5 8 ",
"= - - - - ' - - - - ' - - - - > > - - - - ' - - - - ' - - - - , ",
"= - - - - ' - - - - ' - - - - > > - - - - ' - - - - ' - - - - , ",
"= - - - - ' - - - - ' - - - - > > - - - - ' - - - - ' - - - - , ",
"= - - - - ' - - - - ' - - - - > > - - - - ' - - - - ' - - - - , ",
"9 0 a a 0 b 0 a a a b 0 a a a c c a a a 0 b a a a 0 b 0 a a 0 d ",
"e f f f f g f f f f h i f f f j j f f f f k f f f f l f f f f m ",
"= n n n n n n n n n o p q n n n n n n n n n n n n n n n n n n , ",
"= n n n n n n n r s t u v w x n n y y o n n z A n n n n n n n , ",
"= n n n n n n n B C z n D E F r n G H I n n J K n n n n n n n , ",
"= n n n n n n L M N n n n q O P n G Q R S n J K n n n n n n n , ",
"T U n n n n n V W U n n n n X Y n G Z G A ` J K n n n n n n U  .",
"..n n n n n n +.@.n n n n n #.$.n G %.&.*.=.J K n n n n n n n -.",
"= n n n n n n ;.t ` n n n n >.,.n G %.n '.M ).K n n n n n n n , ",
"= n n n n n n !.~.{.n n n S ].^.n G %.n U /.(.K n n n n n n n , ",
"= n n n n n n n _.:.<.[.}.|.1.n n G %.n n p v K n n n n n n n , ",
"= n n n n n n n n 2.3.4.5.6.n n n 7.8.n n n 9.0.n n n n n n n , ",
"a.b.c.c.d.e.b.c.c.c.f.g.c.c.c.h.i.c.c.c.j.f.c.c.c.j.k.c.c.c.c.l."};
