/* XPM */
static char * displayOFF_xpm[] = {
"32 32 94 2",
"  	c None",
". 	c #0067AC",
"+ 	c #0F6FB1",
"@ 	c #0D5384",
"# 	c #0C5384",
"$ 	c #1D669A",
"% 	c #1C669A",
"& 	c #145C8F",
"* 	c #1472B2",
"= 	c #3184BC",
"- 	c #000000",
"; 	c #4B525B",
"> 	c #25292D",
", 	c #428EC1",
"' 	c #4A525B",
") 	c #2A7EB7",
"! 	c #5B5F66",
"~ 	c #5A5F66",
"{ 	c #737D8A",
"] 	c #666E78",
"^ 	c #3986BB",
"/ 	c #2D80B9",
"( 	c #292C30",
"_ 	c #5C6571",
": 	c #434850",
"< 	c #3D89BD",
"[ 	c #297DB6",
"} 	c #535961",
"| 	c #535960",
"1 	c #6E7987",
"2 	c #606974",
"3 	c #3784BA",
"4 	c #2E81BA",
"5 	c #2F3134",
"6 	c #606873",
"7 	c #474D54",
"8 	c #3F8ABF",
"9 	c #287CB6",
"0 	c #4D535C",
"a 	c #4C535C",
"b 	c #6A7584",
"c 	c #5B6470",
"d 	c #3683B9",
"e 	c #2F82BB",
"f 	c #F4F6F8",
"g 	c #E9ECEF",
"h 	c #EDEFF2",
"i 	c #F5F6F8",
"j 	c #EEF0F3",
"k 	c #E8EBEF",
"l 	c #E9ECF0",
"m 	c #408CC0",
"n 	c #FFFFFF",
"o 	c #FDFEFD",
"p 	c #F4FDF0",
"q 	c #FCFEFB",
"r 	c #FFF9F9",
"s 	c #FF6D81",
"t 	c #FF3854",
"u 	c #FF092B",
"v 	c #FF3F5A",
"w 	c #FFA8B4",
"x 	c #FF7E90",
"y 	c #FF7689",
"z 	c #FFFEFE",
"A 	c #FF7588",
"B 	c #FF8091",
"C 	c #FF0F30",
"D 	c #FF2342",
"E 	c #FFE9EC",
"F 	c #FFE8EB",
"G 	c #FF2442",
"H 	c #277BB5",
"I 	c #FEFEFE",
"J 	c #FF1031",
"K 	c #FFFCFC",
"L 	c #3884BA",
"M 	c #3083BB",
"N 	c #428DC0",
"O 	c #FF7F91",
"P 	c #FF697E",
"Q 	c #FF3753",
"R 	c #0D6FB0",
"S 	c #468FC2",
"T 	c #458FC2",
"U 	c #4991C3",
"V 	c #4F95C5",
"W 	c #458FC1",
"X 	c #4690C2",
"Y 	c #4E94C4",
"Z 	c #4B92C3",
"` 	c #4790C2",
" .	c #448DC0",
"..	c #1271B2",
". . . . . . . . . . . . . . . . . . . . . . . . . . . . . . . . ",
". . . . . . . . . . . . . . . . . . . . . . . . . . . . . . . . ",
"+ @ # # # $ # # # # % # # # # & & # # # # % # # # # $ # # # @ * ",
"= - - - - ; - - - - ; - - - - > > - - - - ; - - - - ; - - - - , ",
"= - - - - ' - - - - ' - - - - > > - - - - ' - - - - ' - - - - , ",
"= - - - - ' - - - - ' - - - - > > - - - - ' - - - - ' - - - - , ",
"= - - - - ' - - - - ' - - - - > > - - - - ' - - - - ' - - - - , ",
") ! ~ ~ ~ { ~ ~ ~ ~ { ~ ~ ~ ~ ] ] ~ ~ ~ ~ { ~ ~ ~ ~ { ~ ~ ~ ~ ^ ",
"/ ( ( ( ( _ ( ( ( ( _ ( ( ( ( : : ( ( ( ( _ ( ( ( ( _ ( ( ( ( < ",
"= - - - - ' - - - - ' - - - - > > - - - - ' - - - - ' - - - - , ",
"= - - - - ' - - - - ' - - - - > > - - - - ' - - - - ' - - - - , ",
"= - - - - ' - - - - ' - - - - > > - - - - ' - - - - ' - - - - , ",
"= - - - - ' - - - - ' - - - - > > - - - - ' - - - - ' - - - - , ",
"[ } | | | 1 } | | | 1 } | | | 2 2 | | | } 1 | | | } 1 | | | | 3 ",
"4 5 5 5 5 6 5 5 5 5 6 5 5 5 5 7 7 5 5 5 5 6 5 5 5 5 6 5 5 5 5 8 ",
"= - - - - ' - - - - ' - - - - > > - - - - ' - - - - ' - - - - , ",
"= - - - - ' - - - - ' - - - - > > - - - - ' - - - - ' - - - - , ",
"= - - - - ' - - - - ' - - - - > > - - - - ' - - - - ' - - - - , ",
"= - - - - ' - - - - ' - - - - > > - - - - ' - - - - ' - - - - , ",
"9 0 a a 0 b 0 a a a b 0 a a a c c a a a 0 b a a a 0 b 0 a a 0 d ",
"e f f f f g f f f f h i f f f j j f f f f k f f f f l f f f f m ",
"= n n n n n n n n n o p q n n n n n n n n n n n n n n n n n n , ",
"= n n n n n n r s t t s r n u v v v w n u v v v w n n n n n n , ",
"= n n n n n n x y z z A B n C n n n n n C n n n n n n n n n n , ",
"= n n n n n n D E n n F G n C n n n n n C n n n n n n n n n n , ",
"H I n n n n n J n n n n J n u v v v K n u v v v K n n n n n I L ",
"M n n n n n n D E n n F G n C n n n n n C n n n n n n n n n n N ",
"= n n n n n n x y z z A O n C n n n n n C n n n n n n n n n n , ",
"= n n n n n n r P Q t s r n C n n n n n C n n n n n n n n n n , ",
"= n n n n n n n n n n n n n n n n n n n n n n n n n n n n n n , ",
"= n n n n n n n n n n n n n n n n n n n n n n n n n n n n n n , ",
"R S T T U V S T T T W X T T T Y Z T T T ` W T T T `  .T T T T .."};
