/* XPM */
static char * display_xpm[] = {
"32 32 5 1",
" 	c None",
".	c #000000",
"+	c #645F5F",
"@	c #16E07A",
"#	c #FD0000",
"                                ",
"                                ",
"                                ",
"    .                           ",
"   +.+                          ",
"   ...                          ",
"    .                           ",
"    .                           ",
"    .                     @     ",
"    .                    @@     ",
"    .                   @@      ",
"    .        @@@@       @       ",
"    .       @@  @@@    @@  #    ",
"    .     @@      @@@@@@  ##    ",
"    .   @@@               #     ",
"    .  @@      ##        ##     ",
"    . @      #####       #      ",
"    . @    ###   #     ###      ",
"    .     #      #######        ",
"    .    ##                     ",
"    .   ##                      ",
"    .  #                        ",
"    .                           ",
"    .                           ",
"    .                     .+    ",
"  ...........................   ",
"    .                     .+    ",
"    .                           ",
"    .                           ",
"                                ",
"                                ",
"                                "};
