/* XPM */
static char *KuB4KVsF[] = {
/* columns rows colors chars-per-pixel */
"30 30 9 1 ",
"  c #020202",
". c #030302",
"X c #020203",
"o c gray1",
"O c #040402",
"+ c #040403",
"@ c #040404",
"# c gray2",
"$ c None",
/* pixels */
"$$$$$$$$$$$$$$$$$$$$$$$$$$$$$$",
"$$$$$$$$$$$$$$$$$$$$$$$$$$$$$$",
"$$$$$$$ooo$$$$$$$$oo$$$$$$$$$$",
"$$$$$$$$ooo$$$$$$oooo$$$$$$$$$",
"$$$$$$$$$ooo$$$$ooooo$$$$$$$$$",
"$$$$$$$$$oooo$$ooooooo$$$$$$$$",
"$$$$$$$$$oooo$$$+ooooooo$$$$$$",
"$$o$$$$$@oooo$$$$$@oooooo$$$$$",
"$$o@$$$@ooooo$$$$$$$oooooo$$$$",
"$$ooo@ooooooo$$$$$$$ooooooo$$$",
"$$@oooooooooo@$$$$$$ooooooo@$$",
"$$$@ooooooooooo$$$$ooooooooo$$",
"$$$$@oooooooooo$$$oooo+$@ooo$$",
"$$$$$$@@$$oooo$$$ooooo$$$ooo$$",
"$$$$$$$$$$$oo$$$oooo+$$$$@oo$$",
"$$$$$$$$$$$$$$$oooo+$$$$$$oo$$",
"$$$$$$$$$$$$$$oooo+$$$$$$$oo$$",
"$$$$$$$$$$$$oooooo$$$$$$$$oo$$",
"$$$$$$$$$$$oooooo$$@o@$$$$@o$$",
"$$$$$$$$$$oooooo$$@ooo@$$$$$$$",
"$$$$$$$$$oooooo$$$ooooo@$$$$$$",
"$$$$$$$$ooooooo$$$oooooo@$$$$$",
"$$$$$$$ooooooo$$$$$ooooooo$$$$",
"$$$$$$ooooooo$$$$$$$oooo@+o$$$",
"$$$$$ooooooo$$$$$$$$$oo$$$oo$$",
"$$$$ooooooo$$$$$$$$$$$o@$$oo$$",
"$$$$$ooooo$$$$$$$$$$$$ooooo$$$",
"$$$$$oooo$$$$$$$$$$$$$$@oo$$$$",
"$$$$$$$$$$$$$$$$$$$$$$$$$$$$$$",
"$$$$$$$$$$$$$$$$$$$$$$$$$$$$$$"
};
