/* XPM */
static char * exit_xpm[] = {
"23 23 412 2",
"  	c None",
". 	c #2D201E",
"+ 	c #401E1E",
"@ 	c #4E1415",
"# 	c #4C0809",
"$ 	c #4F1518",
"% 	c #3E171B",
"& 	c #332221",
"* 	c #351012",
"= 	c #70060F",
"- 	c #BB060F",
"; 	c #D40909",
"> 	c #EF0705",
", 	c #F50804",
"' 	c #EB0605",
") 	c #D40908",
"! 	c #BD050C",
"~ 	c #76050E",
"{ 	c #361414",
"] 	c #2F1D1C",
"^ 	c #5F0C09",
"/ 	c #B90A0A",
"( 	c #D61807",
"_ 	c #E62908",
": 	c #F43106",
"< 	c #F13408",
"[ 	c #ED3404",
"} 	c #E72F06",
"| 	c #E42903",
"1 	c #DA2004",
"2 	c #CB1106",
"3 	c #B4070A",
"4 	c #640A0C",
"5 	c #2C211F",
"6 	c #291112",
"7 	c #83080C",
"8 	c #CC1607",
"9 	c #F2340A",
"0 	c #FA3805",
"a 	c #F63803",
"b 	c #EC3801",
"c 	c #E83601",
"d 	c #E43501",
"e 	c #E13100",
"f 	c #DD2E01",
"g 	c #DB2C02",
"h 	c #DB2702",
"i 	c #D72005",
"j 	c #BC0D08",
"k 	c #83070C",
"l 	c #2C1612",
"m 	c #331B1B",
"n 	c #810A0A",
"o 	c #DB260E",
"p 	c #F93D08",
"q 	c #F43C01",
"r 	c #F13902",
"s 	c #F32F06",
"t 	c #F12206",
"u 	c #F41604",
"v 	c #F21403",
"w 	c #F21402",
"x 	c #EA1A02",
"y 	c #DE2202",
"z 	c #D22801",
"A 	c #CE2701",
"B 	c #CF2205",
"C 	c #C11207",
"D 	c #7D0806",
"E 	c #311C1C",
"F 	c #392C2E",
"G 	c #630904",
"H 	c #DD2A0B",
"I 	c #FB3C05",
"J 	c #F13D01",
"K 	c #FA2E05",
"L 	c #F71402",
"M 	c #F70500",
"N 	c #FC0101",
"O 	c #FD0003",
"P 	c #F70400",
"Q 	c #EC0D01",
"R 	c #DC1902",
"S 	c #C42400",
"T 	c #C41E01",
"U 	c #B51203",
"V 	c #600909",
"W 	c #372D2C",
"X 	c #3A0D0F",
"Y 	c #BF250B",
"Z 	c #FA3C05",
"` 	c #F93904",
" .	c #F82606",
"..	c #F80601",
"+.	c #FD0200",
"@.	c #FC0201",
"#.	c #FB0201",
"$.	c #FA0200",
"%.	c #F90201",
"&.	c #F90301",
"*.	c #F60301",
"=.	c #F20502",
"-.	c #DA1201",
";.	c #BD1E00",
">.	c #C11703",
",.	c #A50F07",
"'.	c #380D0D",
").	c #780F09",
"!.	c #EE3E0B",
"~.	c #FB3900",
"{.	c #F32A05",
"].	c #F50404",
"^.	c #EB3636",
"/.	c #E35453",
"(.	c #EC1114",
"_.	c #F60302",
":.	c #FC0002",
"<.	c #F60204",
"[.	c #E91112",
"}.	c #EE625F",
"|.	c #EC5554",
"1.	c #EC080A",
"2.	c #F40301",
"3.	c #CF1300",
"4.	c #BD1503",
"5.	c #B31603",
"6.	c #680707",
"7.	c #2C1C1A",
"8.	c #C3250D",
"9.	c #F43D01",
"0.	c #FB3106",
"a.	c #EF0C00",
"b.	c #F70203",
"c.	c #EA4845",
"d.	c #F7F4EC",
"e.	c #FBFAFA",
"f.	c #F3BCB8",
"g.	c #E71417",
"h.	c #F60401",
"i.	c #EB0F13",
"j.	c #F2B1AC",
"k.	c #F6F9F9",
"l.	c #F9F9F7",
"m.	c #EB6A68",
"n.	c #F90101",
"o.	c #EF0401",
"p.	c #BE1202",
"q.	c #B11501",
"r.	c #9A0D08",
"s.	c #2E1B19",
"t.	c #431E1D",
"u.	c #E6370E",
"v.	c #EC3D03",
"w.	c #F31C08",
"x.	c #F50202",
"y.	c #F00308",
"z.	c #E8807A",
"A.	c #FDF9FD",
"B.	c #F9FDFC",
"C.	c #F9F9FC",
"D.	c #F0C1BE",
"E.	c #DA252A",
"F.	c #F0B5B2",
"G.	c #FAFCFB",
"H.	c #F8FDF9",
"I.	c #FBFAF8",
"J.	c #EC8586",
"K.	c #F10501",
"L.	c #F60001",
"M.	c #CE0A03",
"N.	c #B01102",
"O.	c #A21008",
"P.	c #402325",
"Q.	c #41110B",
"R.	c #EC3A08",
"S.	c #EE3605",
"T.	c #F20B02",
"U.	c #F20200",
"V.	c #F00100",
"W.	c #E42829",
"X.	c #F4E1DA",
"Y.	c #FBFDFD",
"Z.	c #FBFDFC",
"`.	c #F8ECF0",
" +	c #FEFBFC",
".+	c #FBFFFD",
"++	c #FDFAFD",
"@+	c #EEDECC",
"#+	c #E52623",
"$+	c #F10203",
"%+	c #F00202",
"&+	c #E40301",
"*+	c #AB0D03",
"=+	c #A70B04",
"-+	c #320C09",
";+	c #49150E",
">+	c #EE3608",
",+	c #EE2F06",
"'+	c #ED0401",
")+	c #EE0000",
"!+	c #EE0100",
"~+	c #EA0302",
"{+	c #E13131",
"]+	c #F4E3D5",
"^+	c #FBFAFE",
"/+	c #FBFEFE",
"(+	c #FCFEFE",
"_+	c #FCFFFE",
":+	c #FDFBFC",
"<+	c #F3DBD1",
"[+	c #DA2E2D",
"}+	c #ED0302",
"|+	c #EB0100",
"1+	c #E40401",
"2+	c #AB0B02",
"3+	c #A30B02",
"4+	c #300B07",
"5+	c #491811",
"6+	c #E93507",
"7+	c #E82C06",
"8+	c #E90301",
"9+	c #EB0102",
"0+	c #ED0102",
"a+	c #E50605",
"b+	c #C94141",
"c+	c #F4F8F6",
"d+	c #FEFFFF",
"e+	c #FAFFFF",
"f+	c #FDFEFE",
"g+	c #F5F8F6",
"h+	c #CB4143",
"i+	c #E30603",
"j+	c #EB0202",
"k+	c #EA0200",
"l+	c #E30401",
"m+	c #AA0901",
"n+	c #9D0B02",
"o+	c #310A07",
"p+	c #4E2925",
"q+	c #DD3708",
"r+	c #E42C08",
"s+	c #E00301",
"t+	c #E80001",
"u+	c #E90101",
"v+	c #DE161A",
"w+	c #EFC1BE",
"x+	c #FCFCFB",
"y+	c #FEFEFE",
"z+	c #FDFEFD",
"A+	c #FEFEFC",
"B+	c #F3C9C3",
"C+	c #DE1D20",
"D+	c #EA0102",
"E+	c #E30201",
"F+	c #E30200",
"G+	c #DC0303",
"H+	c #A60702",
"I+	c #940805",
"J+	c #3E211F",
"K+	c #2F1D18",
"L+	c #D52F0F",
"M+	c #DC3003",
"N+	c #E20801",
"O+	c #DF0100",
"P+	c #E50001",
"Q+	c #D31719",
"R+	c #EDC4BD",
"S+	c #F7FDFC",
"T+	c #FCFDFF",
"U+	c #FCFBFE",
"V+	c #F9FBF6",
"W+	c #FCFAFE",
"X+	c #FEFBFF",
"Y+	c #FBFBFB",
"Z+	c #EDCDC5",
"`+	c #DB1922",
" @	c #DE0302",
".@	c #E40001",
"+@	c #D20204",
"@@	c #9B0500",
"#@	c #88070B",
"$@	c #2D1A19",
"%@	c #942213",
"&@	c #D62E01",
"*@	c #DA1504",
"=@	c #DE0100",
"-@	c #DF0205",
";@	c #DC8079",
">@	c #FCFAFC",
",@	c #FCFCFD",
"'@	c #E9D5CB",
")@	c #BE4446",
"!@	c #ECD8D2",
"~@	c #F6FEFD",
"{@	c #FAFBFA",
"]@	c #E17877",
"^@	c #DA0201",
"/@	c #DC0001",
"(@	c #B70304",
"_@	c #960402",
":@	c #5D090B",
"<@	c #441913",
"[@	c #D12A08",
"}@	c #D62207",
"|@	c #D70501",
"1@	c #DB0106",
"2@	c #D77C72",
"3@	c #F9FDFA",
"4@	c #F7FCFB",
"5@	c #E9CCC9",
"6@	c #C41D20",
"7@	c #D00505",
"8@	c #C12326",
"9@	c #F1D6D0",
"0@	c #F8FCFD",
"a@	c #F8F8F5",
"b@	c #D05A55",
"c@	c #DA0101",
"d@	c #CA0205",
"e@	c #A20201",
"f@	c #900506",
"g@	c #340F0E",
"h@	c #392A2A",
"i@	c #812310",
"j@	c #CE2704",
"k@	c #CA1C01",
"l@	c #D30403",
"m@	c #C40D13",
"n@	c #CA7778",
"o@	c #C18983",
"p@	c #BB1B1F",
"q@	c #D10305",
"r@	c #D40003",
"s@	c #CC0504",
"t@	c #B92121",
"u@	c #C57D7B",
"v@	c #BD5A59",
"w@	c #C70506",
"x@	c #D30004",
"y@	c #A30502",
"z@	c #8E0502",
"A@	c #5A080A",
"B@	c #2F2222",
"C@	c #30201A",
"D@	c #A71E11",
"E@	c #C92005",
"F@	c #C81601",
"G@	c #C50402",
"H@	c #C50204",
"I@	c #CA0106",
"J@	c #CA0100",
"K@	c #CA0101",
"L@	c #CE0001",
"M@	c #CD0000",
"N@	c #CE0100",
"O@	c #C80203",
"P@	c #C90302",
"Q@	c #C50203",
"R@	c #AA0202",
"S@	c #950302",
"T@	c #740608",
"U@	c #2F191B",
"V@	c #35251F",
"W@	c #9B1C10",
"X@	c #C01D03",
"Y@	c #BD1805",
"Z@	c #C10903",
"`@	c #C50101",
" #	c #C80001",
".#	c #C70000",
"+#	c #C50000",
"@#	c #C40000",
"##	c #C20203",
"$#	c #C40102",
"%#	c #B40401",
"&#	c #9E0301",
"*#	c #8E0402",
"=#	c #700607",
"-#	c #331C1B",
";#	c #2E1A1A",
">#	c #69160D",
",#	c #B01A09",
"'#	c #B41602",
")#	c #B51001",
"!#	c #B20E02",
"~#	c #B80702",
"{#	c #B50602",
"]#	c #B10501",
"^#	c #A90602",
"/#	c #A10402",
"(#	c #980302",
"_#	c #8A0707",
":#	c #4F0808",
"<#	c #2F1C1D",
"[#	c #36120F",
"}#	c #65120D",
"|#	c #93130D",
"1#	c #A90F08",
"2#	c #A60D06",
"3#	c #A10B05",
"4#	c #9D0A04",
"5#	c #960806",
"6#	c #7B0B08",
"7#	c #4D0A06",
"8#	c #31100F",
"9#	c #291F1C",
"0#	c #342521",
"a#	c #3C1416",
"b#	c #2E090B",
"c#	c #371314",
"d#	c #371D1C",
"e#	c #311E1D",
"                . + @ # $ % &                 ",
"            * = - ; > , ' ) ! ~ {             ",
"        ] ^ / ( _ : < [ } | 1 2 3 4 5         ",
"      6 7 8 9 0 a b c d e f g h i j k l       ",
"    m n o p q r s t u v w x y z A B C D E     ",
"  F G H I J K L M N O O O N P Q R S T U V W   ",
"  X Y Z `  ...+.@.#.$.%.&.@.%.*.=.-.;.>.,.'.  ",
"  ).!.~.{.P ].^./.(._.:.<.[.}.|.1.2.3.4.5.6.  ",
"7.8.9.0.a.b.c.d.e.f.g.h.i.j.k.l.m.n.o.p.q.r.s.",
"t.u.v.w.x.y.z.A.B.C.D.E.F.G.H.I.J.K.L.M.N.O.P.",
"Q.R.S.T.U.V.W.X.Y.Z.e.`. +.+++@+#+$+%+&+*+=+-+",
";+>+,+'+)+!+~+{+]+^+/+(+_+:+<+[+}+)+|+1+2+3+4+",
"5+6+7+8+9+9+0+a+b+c+d+e+f+g+h+i+j+|+k+l+m+n+o+",
"p+q+r+&+s+t+u+v+w+x+y+z+A+Z.B+C+D+E+F+G+H+I+J+",
"K+L+M+N+O+P+Q+R+S+T+U+V+W+X+Y+Z+`+ @.@+@@@#@$@",
"  %@&@*@=@-@;@>@X+,@'@)@!@~@T+{@]@^@/@(@_@:@  ",
"  <@[@}@|@1@2@3@4@5@6@7@8@9@0@a@b@c@d@e@f@g@  ",
"  h@i@j@k@l@m@n@o@p@q@r@s@t@u@v@w@x@y@z@A@B@  ",
"    C@D@E@F@G@H@I@J@K@L@M@N@O@P@Q@R@S@T@U@    ",
"      V@W@X@Y@Z@`@ #.#+#@###$#%#&#*#=#-#      ",
"        ;#>#,#'#)#!#~#{#]#^#/#(#_#:#<#        ",
"            [#}#|#1#2#3#4#5#6#7#8#            ",
"                9#0#a#b#c#d#e#                "};
