/* XPM */
static char * start_acq_xpm[] = {
"23 23 374 2",
"  	c None",
". 	c #5B1A1D",
"+ 	c #4A1717",
"@ 	c #391211",
"# 	c #4B201F",
"$ 	c #391312",
"% 	c #401615",
"& 	c #561E1F",
"* 	c #3A0F0F",
"= 	c #2F0303",
"- 	c #420102",
"; 	c #550203",
"> 	c #680707",
", 	c #6D0E0D",
"' 	c #670707",
") 	c #540202",
"! 	c #450102",
"~ 	c #330303",
"{ 	c #3E1313",
"] 	c #612A2A",
"^ 	c #350505",
"/ 	c #510303",
"( 	c #861717",
"_ 	c #C23A37",
": 	c #E75C56",
"< 	c #F36567",
"[ 	c #F56769",
"} 	c #F26668",
"| 	c #E65756",
"1 	c #C03B3B",
"2 	c #861517",
"3 	c #510304",
"4 	c #380505",
"5 	c #642727",
"6 	c #592427",
"7 	c #340201",
"8 	c #720708",
"9 	c #C82A2A",
"0 	c #F04344",
"a 	c #F04247",
"b 	c #EE4546",
"c 	c #EF4543",
"d 	c #EF4744",
"e 	c #F04644",
"f 	c #EF4645",
"g 	c #EF4644",
"h 	c #EF4242",
"i 	c #C52A2B",
"j 	c #720707",
"k 	c #370201",
"l 	c #441619",
"m 	c #4F1B1C",
"n 	c #330201",
"o 	c #7E0708",
"p 	c #D72724",
"q 	c #E8282A",
"r 	c #E82A26",
"s 	c #E82B24",
"t 	c #EB2A2F",
"u 	c #E92B2B",
"v 	c #E92B2A",
"w 	c #E82928",
"x 	c #E82827",
"y 	c #E82B29",
"z 	c #D52722",
"A 	c #7F0708",
"B 	c #390202",
"C 	c #5E2A2A",
"D 	c #330505",
"E 	c #710505",
"F 	c #C11B19",
"G 	c #D81C1A",
"H 	c #DB1D1C",
"I 	c #D72322",
"J 	c #C32628",
"K 	c #D71E20",
"L 	c #DF1A1A",
"M 	c #DF1B1B",
"N 	c #DC1B1B",
"O 	c #DE1A1A",
"P 	c #DD1A1A",
"Q 	c #D81B1B",
"R 	c #D81B1A",
"S 	c #C01C19",
"T 	c #710404",
"U 	c #340505",
"V 	c #46191A",
"W 	c #5A0303",
"X 	c #9E1011",
"Y 	c #BF1B1B",
"Z 	c #C51B1B",
"` 	c #C61B1B",
" .	c #C43A39",
"..	c #F3D2D1",
"+.	c #C96261",
"@.	c #BA1F1E",
"#.	c #C51E1B",
"$.	c #CA1B1C",
"%.	c #CA1B1D",
"&.	c #C81B1C",
"*.	c #C61C1C",
"=.	c #C21D1B",
"-.	c #C41B1B",
";.	c #C21B1B",
">.	c #9D1111",
",.	c #481516",
"'.	c #7A0404",
").	c #AA1919",
"!.	c #B01B1B",
"~.	c #B11C1C",
"{.	c #B41C1D",
"].	c #BE3736",
"^.	c #FDEDEE",
"/.	c #FDEDEB",
"(.	c #E8BBBC",
"_.	c #BA4547",
":.	c #B71A19",
"<.	c #BA1D1B",
"[.	c #B71D1B",
"}.	c #B81C1B",
"|.	c #B51C1B",
"1.	c #B21C1C",
"2.	c #AF1B1B",
"3.	c #AB1919",
"4.	c #7B0505",
"5.	c #340304",
"6.	c #581C1F",
"7.	c #500203",
"8.	c #8B0909",
"9.	c #A21717",
"0.	c #A41818",
"a.	c #A61A1A",
"b.	c #A71C1C",
"c.	c #B53635",
"d.	c #FDF0F0",
"e.	c #FDF5F0",
"f.	c #FDF5F3",
"g.	c #FDEAED",
"h.	c #DA9798",
"i.	c #AE2D2D",
"j.	c #AF1A1A",
"k.	c #B21919",
"l.	c #A81B1C",
"m.	c #A41919",
"n.	c #A31717",
"o.	c #8E0709",
"p.	c #4C0203",
"q.	c #5D1D20",
"r.	c #461919",
"s.	c #6A0404",
"t.	c #930A0A",
"u.	c #9D1415",
"v.	c #A01515",
"w.	c #A31A1A",
"x.	c #AE3432",
"y.	c #FDF0F1",
"z.	c #FDF6F4",
"A.	c #FDF7F6",
"B.	c #FDF5F2",
"C.	c #FDF2EF",
"D.	c #F9DCDB",
"E.	c #C77A79",
"F.	c #A21E1F",
"G.	c #A81819",
"H.	c #A11616",
"I.	c #9F1414",
"J.	c #910B0A",
"K.	c #4B161A",
"L.	c #3C1212",
"M.	c #7B0507",
"N.	c #910909",
"O.	c #991212",
"P.	c #A21616",
"Q.	c #A11818",
"R.	c #AD3231",
"S.	c #FDF1F2",
"T.	c #FDF7F5",
"U.	c #FEFBFC",
"V.	c #FEFDFD",
"W.	c #FDF7F7",
"X.	c #F0C8C5",
"Y.	c #BD5A59",
"Z.	c #9B1315",
"`.	c #A01314",
" +	c #9A1111",
".+	c #900A09",
"++	c #770606",
"@+	c #502021",
"#+	c #7F080A",
"$+	c #981010",
"%+	c #9D1313",
"&+	c #9F1515",
"*+	c #A01717",
"=+	c #AB312F",
"-+	c #FDF6F5",
";+	c #FEFCFD",
">+	c #FDF8F9",
",+	c #FDEEEE",
"'+	c #FDE8EC",
")+	c #D47D79",
"!+	c #9A1410",
"~+	c #991011",
"{+	c #910C0A",
"]+	c #820709",
"^+	c #4C1D1F",
"/+	c #3D1212",
"(+	c #7F0A0A",
"_+	c #960C0C",
":+	c #AD3130",
"<+	c #FEFCFC",
"[+	c #FEF8F9",
"}+	c #F5CBC7",
"|+	c #C55E5F",
"1+	c #A21519",
"2+	c #A11314",
"3+	c #940C0B",
"4+	c #81090A",
"5+	c #441616",
"6+	c #77090A",
"7+	c #970D0C",
"8+	c #991111",
"9+	c #9E1414",
"0+	c #A31919",
"a+	c #B03432",
"b+	c #FDF0F3",
"c+	c #FDF8F5",
"d+	c #FDF4F7",
"e+	c #FBE3E1",
"f+	c #D78182",
"g+	c #AC2526",
"h+	c #A41918",
"i+	c #A01616",
"j+	c #9C1414",
"k+	c #9A1010",
"l+	c #960E0D",
"m+	c #740B0C",
"n+	c #3F0E0E",
"o+	c #572022",
"p+	c #5E0708",
"q+	c #9A1211",
"r+	c #9F1415",
"s+	c #B43635",
"t+	c #FDF4F8",
"u+	c #FDF4F5",
"v+	c #FDF1F7",
"w+	c #E8A1A0",
"x+	c #C33537",
"y+	c #B21B1A",
"z+	c #AA1B1C",
"A+	c #A51919",
"B+	c #9D1413",
"C+	c #9E1112",
"D+	c #57090A",
"E+	c #5E1D1E",
"F+	c #390505",
"G+	c #991515",
"H+	c #A41718",
"I+	c #A91B1B",
"J+	c #B11B1C",
"K+	c #BB3635",
"L+	c #FDEFE9",
"M+	c #F4C2C1",
"N+	c #D54F52",
"O+	c #C01E1E",
"P+	c #C31B1B",
"Q+	c #B81E1B",
"R+	c #B31A1B",
"S+	c #A81B1B",
"T+	c #991416",
"U+	c #370506",
"V+	c #471C1D",
"W+	c #790D0F",
"X+	c #A21919",
"Y+	c #AC1B1B",
"Z+	c #B11B1B",
"`+	c #C33735",
" @	c #FAD1CE",
".@	c #DD6D6F",
"+@	c #CB2121",
"@@	c #D01C1B",
"#@	c #CF1D1B",
"$@	c #CC1C1D",
"%@	c #C91B1D",
"&@	c #BF1C1B",
"*@	c #B41D1C",
"=@	c #B21B1B",
"-@	c #AA1B1B",
";@	c #771010",
">@	c #3F1213",
",@	c #3D0707",
"'@	c #A01619",
")@	c #AA1D1C",
"!@	c #C11A1A",
"~@	c #C91B1B",
"{@	c #D41F21",
"]@	c #D62B2F",
"^@	c #DB1C1C",
"/@	c #DD1B1B",
"(@	c #E21B1B",
"_@	c #E01A1A",
":@	c #DD1C1A",
"<@	c #D61C1B",
"[@	c #D01A1A",
"}@	c #CB191A",
"|@	c #B91F1D",
"1@	c #9B1A1A",
"2@	c #3D0808",
"3@	c #511E1D",
"4@	c #470807",
"5@	c #B7171C",
"6@	c #C51E1C",
"7@	c #E01E1C",
"8@	c #E42222",
"9@	c #E82524",
"0@	c #E82727",
"a@	c #E92827",
"b@	c #E72525",
"c@	c #E72323",
"d@	c #E41F1F",
"e@	c #E01D1C",
"f@	c #D91E1A",
"g@	c #CA1D1B",
"h@	c #AE1A1C",
"i@	c #4D0808",
"j@	c #551E1F",
"k@	c #582528",
"l@	c #4B0909",
"m@	c #B61B1B",
"n@	c #DD2323",
"o@	c #E82E2C",
"p@	c #EE3737",
"q@	c #ED3C3C",
"r@	c #EE3F3F",
"s@	c #EE4140",
"t@	c #ED3E3D",
"u@	c #ED3B3A",
"v@	c #EB3433",
"w@	c #EA312E",
"x@	c #DD2321",
"y@	c #B61A1C",
"z@	c #4F0808",
"A@	c #582627",
"B@	c #6B3637",
"C@	c #420809",
"D@	c #961617",
"E@	c #D82425",
"F@	c #E83837",
"G@	c #F04C47",
"H@	c #F4595B",
"I@	c #F35A5A",
"J@	c #F45758",
"K@	c #F14C4A",
"L@	c #EC393C",
"M@	c #D82427",
"N@	c #971517",
"O@	c #3E0909",
"P@	c #58191A",
"Q@	c #491C1B",
"R@	c #3F0708",
"S@	c #821114",
"T@	c #B01F20",
"U@	c #CE2C2D",
"V@	c #D93134",
"W@	c #CF2B2C",
"X@	c #B21D1E",
"Y@	c #7B1314",
"Z@	c #400909",
"`@	c #3D1011",
" #	c #4D1518",
".#	c #3F1314",
"+#	c #4B1F20",
"@#	c #3D1112",
"##	c #4A1618",
"$#	c #5E1B1E",
"                . + @ # $ % &                 ",
"            * = - ; > , ' ) ! ~ {             ",
"        ] ^ / ( _ : < [ } | 1 2 3 4 5         ",
"      6 7 8 9 0 a b c d e f g h i j k l       ",
"    m n o p q r s t u v v w x w y z A B C     ",
"    D E F G H I J K L M N O L P Q R S T U     ",
"  V W X Y Z `  ...+.@.#.$.%.&.*.=.-.;.>.W ,.  ",
"  ~ '.).!.~.{.].^./.(._.:.<.[.}.|.1.2.3.4.5.  ",
"6.7.8.9.0.a.b.c.d.e.f.g.h.i.j.k.l.a.m.n.o.p.q.",
"r.s.t.u.v.n.w.x.y.z.A.B.C.D.E.F.G.n.H.I.J.s.K.",
"L.M.N.O.I.P.Q.R.S.T.U.U.V.W.S.X.Y.Z.`. +.+++{ ",
"@+#+t.$+%+&+*+=+y.-+U.;+;+>+W.,+'+)+!+~+{+]+^+",
"/+(+_+$+%+H.Q.:+S.-+U.;+<+[+y.}+|+1+2+ +3+4+{ ",
"5+6+7+8+9+n.0+a+b+c+-+d+S.e+f+g+h+i+j+k+l+m+n+",
"o+p+q+r+n.a.l.s+t+u+v+/.w+x+|.y+z+A+P.B+C+D+E+",
"  F+G+H+A+I+J+K+,+L+M+N+O+P+Q+|.R+S+A+i+T+U+  ",
"  V+W+X+Y+Z+}.`+ @.@+@@@#@$@%@&@*@=@-@A+;@>@  ",
"    ,@'@)@!@~@{@]@^@/@(@_@:@<@[@}@|@Z+1@2@    ",
"    3@4@5@6@^@7@8@9@0@a@b@c@d@e@f@g@h@i@j@    ",
"      k@l@m@n@o@p@q@r@s@t@u@v@w@x@y@z@A@      ",
"        B@C@D@E@F@G@H@I@J@K@L@M@N@O@P@        ",
"            Q@R@S@T@U@V@W@X@Y@Z@`@            ",
"                   #.#+#@###$#                "};
