/* XPM */
static char *FMVYb0p0[] = {
/* columns rows colors chars-per-pixel */
"31 31 203 2 ",
"   c black",
".  c #030000",
"X  c gray1",
"o  c #000403",
"O  c #000504",
"+  c #010504",
"@  c #030404",
"#  c #040404",
"$  c #040504",
"%  c #040505",
"&  c gray2",
"*  c #060505",
"=  c #040605",
"-  c #070506",
";  c #060606",
":  c #070707",
">  c #080305",
",  c #0E0407",
"<  c #0F0507",
"1  c #010B07",
"2  c #0E0508",
"3  c #0F0509",
"4  c gray4",
"5  c #100000",
"6  c #1F0001",
"7  c #100509",
"8  c #120409",
"9  c #14040A",
"0  c #190309",
"q  c #190509",
"w  c #1A0509",
"e  c #1D030D",
"r  c #1B050C",
"t  c #1C0A0F",
"y  c #180C0F",
"u  c #08120F",
"i  c #1D0A10",
"p  c #1A0F14",
"a  c #151013",
"s  c gray9",
"d  c #1C1719",
"f  c #181818",
"g  c #1B1B1B",
"h  c #1A1D1B",
"j  c gray11",
"k  c #1E1E1E",
"l  c gray12",
"z  c #240004",
"x  c #26000A",
"c  c #22030E",
"v  c #23030E",
"b  c #24000E",
"n  c #25000E",
"m  c #25030E",
"M  c #24030F",
"N  c #26020E",
"B  c #27020E",
"V  c #20040D",
"C  c #2A000C",
"Z  c #28000E",
"A  c #28000F",
"S  c #2B000F",
"D  c #28050F",
"F  c #37000C",
"G  c #250710",
"H  c #2E0210",
"J  c #280610",
"K  c #310814",
"L  c #2B191F",
"P  c #17211D",
"I  c #1B2723",
"U  c gray14",
"Y  c #252F2B",
"T  c #2B292A",
"R  c #2A2A2A",
"E  c #2D2D2D",
"W  c #25302D",
"Q  c #25312D",
"!  c gray19",
"~  c #343434",
"^  c #373E3C",
"/  c gray22",
"(  c #450012",
")  c #490011",
"_  c #540013",
"`  c #500017",
"'  c #5B0015",
"]  c #510018",
"[  c #570018",
"{  c #5F001B",
"}  c #5E001C",
"|  c #620019",
" . c #670018",
".. c #68001C",
"X. c #6F001F",
"o. c #700020",
"O. c #3F4442",
"+. c #424343",
"@. c gray28",
"#. c #434846",
"$. c #464F4C",
"%. c #46514D",
"&. c #4A5552",
"*. c #4E5A56",
"=. c #565656",
"-. c #5C6361",
";. c #596461",
":. c #66706D",
">. c #717775",
",. c #747D7A",
"<. c #840021",
"1. c #8A0023",
"2. c #900024",
"3. c #930025",
"4. c #A40028",
"5. c #A50029",
"6. c #AD002B",
"7. c #AC002C",
"8. c #AE002D",
"9. c #B5002E",
"0. c #B7002F",
"q. c #B8002F",
"w. c #BA002F",
"e. c #B90030",
"r. c #C1002F",
"t. c #C30031",
"y. c #C90033",
"u. c #CB0033",
"i. c #CC0033",
"p. c #CA0034",
"a. c #D30035",
"s. c #D50035",
"d. c #D80036",
"f. c #D90036",
"g. c #D90037",
"h. c #DC0037",
"j. c #DC0038",
"k. c #DD0038",
"l. c #E00038",
"z. c #E10038",
"x. c #E20038",
"c. c #E20039",
"v. c #E60039",
"b. c #E70039",
"n. c #E8003A",
"m. c #E9003A",
"M. c #EB003A",
"N. c #EB003B",
"B. c #EC003B",
"V. c #EE003B",
"C. c #EB003C",
"Z. c #F0003B",
"A. c #F0013B",
"S. c #F1003C",
"D. c #F1003D",
"F. c #F2003C",
"G. c #F3003C",
"H. c #F6003D",
"J. c #F7003D",
"K. c #F9003E",
"L. c #FA003E",
"P. c #FB003E",
"I. c #FC003E",
"U. c #FD003F",
"Y. c #FD0042",
"T. c #79827E",
"R. c #828584",
"E. c #858D8A",
"W. c gray60",
"Q. c #9C9E9D",
"!. c #9F9F9F",
"~. c #A4A4A4",
"^. c gray66",
"/. c #ACAFAE",
"(. c #B3B7B7",
"). c #B4B5B5",
"_. c #B1B9B7",
"`. c #B3B9B6",
"'. c gray72",
"]. c #B8B9B9",
"[. c gray78",
"{. c #C8C7C8",
"}. c #C3CAC8",
"|. c #C8C8C8",
" X c gray79",
".X c #CDCDCD",
"XX c #CED0D0",
"oX c gray83",
"OX c #D5D5D5",
"+X c gray84",
"@X c #DFE1E1",
"#X c #E2E2E2",
"$X c gray89",
"%X c #E4E4E4",
"&X c #E4E5E5",
"*X c #EEEEEE",
"=X c #EFEFEF",
"-X c #F6F5F5",
";X c #F9F9F9",
":X c #FBFAFA",
">X c #FDFDFD",
",X c white",
"<X c None",
/* pixels */
"<X<X<X<X<X<X<X<X<X<X<X<X<X<X<X<X<X<X<X<X<X<X<X<X<X<X<X<X<X<X<X",
"<X<X<X<X<X<X<X<X<X<X<X<X<X<X<X<X<X<X<X<X<X<X<X<X<X<X<X<X<X<X<X",
"<X<X<X<X<X<X<X<X<X<X<X<X<X<X<X<X<X<X<X<X<X<X<X<X<X<X<X<X<X<X<X",
"<X<X<X<X<X<X<X<X<X<X<X<X<X<X<X<X<X<X<X<X<X* * <X<X<X<X<X<X<X<X",
"<X<X<X<X<X<X<X<X<X<X<X<X<X<X<X<X<X<X<X<X: X 4 : <X<X<X<X<X<X<X",
"<X<X<X<X<X<X<X<X<X<X<X<X<X<X<X<X<X<X<X<X: X =.P * <X<X<X<X<X<X",
"<X<X<X* O O O O O O O O O X O O X o X X X X .X'.k O <X<X<X<X<X",
"<X<XX * e m m m m m m m m m m D m m m m v X '.,X~.k X <X<X<X<X",
"<X<X# 7 g.J.P.P.P.P.P.J.P.P.P.Y.F.a.r.6.4.5 _.,X,X~.g X <X<X<X",
"<X<X# 0 J.v.v.v.v.v.v.v.v.m.d.4.| K d P I h [.,X,X,X!.s X <X<X",
"<X<XO 0 V.v.v.v.v.v.v.m.v.9.[ p W ;.!. X#X$X:X,X,X>X,XW.s * <X",
"<X<X* q A.v.v.v.v.v.m.c.2.D Y R.=X,X,X,X,X,X,X,X,X,X,X,X@.* * ",
"<X<XX 0 A.v.v.v.v.m.v.<.t %.+X,X,X,X,X=X&X#X:X,X,X,X,X[.U * * ",
"<X<X* q A.v.v.v.v.v.3.i ;.:X,X@X/.E.:.*.$.+.oX,X,X,X[.R X : <X",
"<X<XX 0 A.v.v.v.m.e.J &.-XXX,.O.L C F ) ' X (.,X,X XE X : <X<X",
"<X<X* q V.v.v.m.g.| Y '.,.T D _ 1.w.d.F.Y.z _.,X.XE X X <X<X<X",
"<X<XX 0 F.v.v.m.8.y ^ #.G  .w.m.J.m.m.v.P.6 }.oX~ X * <X<X<X<X",
"<X<XO q F.v.v.h.o.1 a ( 8.B.B.v.v.v.v.v.J.x >./ X X <X<X<X<X<X",
"<X<X* 0 F.v.m.y.H > ..s.F.v.v.v.v.v.v.v.Y.J u O X <X<X<X<X<X<X",
"<X<XX 0 B.v.B.9.7 X.c.B.v.v.v.v.v.v.v.v.F.| ] 7 O <X<X<X<X<X<X",
"<X<X# q F.v.v.w.] c.m.v.v.v.v.v.v.v.v.v.v.y.c.V @ <X<X<X<X<X<X",
"<X<X# q F.v.v.d.p.C.v.v.v.v.v.v.v.v.v.v.v.m.P.v O <X<X<X<X<X<X",
"<X<X# q A.v.v.v.v.v.v.v.v.v.v.v.v.v.v.v.v.v.J.v O <X<X<X<X<X<X",
"<X<X# q A.v.v.v.v.v.v.v.v.v.v.v.v.v.v.v.v.v.J.v O <X<X<X<X<X<X",
"<X<X* 0 B.v.v.v.v.v.v.v.v.v.v.v.v.v.v.v.v.v.J.v O <X<X<X<X<X<X",
"<X<XX q J.v.v.v.v.v.v.v.v.v.v.v.v.v.v.v.v.m.P.v o <X<X<X<X<X<X",
"<X<XX , t.m.C.C.C.C.V.C.C.C.V.m.C.C.m.C.m.A.p.r O <X<X<X<X<X<X",
"<X<XO * 3 3 3 7 3 3 3 3 3 3 3 3 3 3 3 3 3 3 3 * * <X<X<X<X<X<X",
"<X<X<X* * O * X O * * O # * * @ O * * @ # @ * * <X<X<X<X<X<X<X",
"<X<X<X<X<X<X<X<X<X<X<X<X<X<X<X<X<X<X<X<X<X<X<X<X<X<X<X<X<X<X<X",
"<X<X<X<X<X<X<X<X<X<X<X<X<X<X<X<X<X<X<X<X<X<X<X<X<X<X<X<X<X<X<X"
};
