/* XPM */
static char *YznIzUK3[] = {
/* columns rows colors chars-per-pixel */
"31 31 187 2 ",
"   c black",
".  c #010101",
"X  c #000300",
"o  c #020002",
"O  c #020102",
"+  c #030003",
"@  c #020202",
"#  c #030202",
"$  c #030203",
"%  c gray1",
"&  c #040203",
"*  c #030403",
"=  c #030503",
"-  c #010702",
";  c #040404",
":  c gray2",
">  c #020802",
",  c #020902",
"<  c #020903",
"1  c #030903",
"2  c #020A03",
"3  c #030A03",
"4  c #0B0009",
"5  c #090909",
"6  c #001600",
"7  c #031104",
"8  c #031204",
"9  c #031504",
"0  c #021803",
"q  c #021A03",
"w  c #170516",
"e  c #161B16",
"r  c #1E1E1E",
"t  c #002F00",
"y  c #032804",
"u  c #022904",
"i  c #032F05",
"p  c #0D210E",
"a  c #0B270C",
"s  c #0B280C",
"d  c #003400",
"f  c #003600",
"g  c #023105",
"h  c #023205",
"j  c #013404",
"k  c #013504",
"l  c #023404",
"z  c #023504",
"x  c #033405",
"c  c #023505",
"v  c #023604",
"b  c #013A03",
"n  c #003D00",
"m  c #013E03",
"M  c #023804",
"N  c #023805",
"B  c #013A04",
"V  c #043806",
"C  c #053A07",
"Z  c #073309",
"A  c #142415",
"S  c #1E251E",
"D  c #2D1C2C",
"F  c #202020",
"G  c #262226",
"H  c gray14",
"J  c #252525",
"K  c #272727",
"L  c gray16",
"P  c #233C24",
"I  c #342333",
"U  c #3D2E3C",
"Y  c #3F2F3E",
"T  c gray19",
"R  c #373737",
"E  c #373A37",
"W  c #3F303E",
"Q  c gray23",
"!  c #3F3F3F",
"~  c #024105",
"^  c #004E00",
"/  c #07440A",
"(  c #005F03",
")  c DarkGreen",
"_  c #006A03",
"`  c #016C06",
"'  c #007000",
"]  c #007203",
"[  c #007600",
"{  c #027A07",
"}  c #037A09",
"|  c #444444",
" . c #4E474E",
".. c #484848",
"X. c #545254",
"o. c #565056",
"O. c #5A545A",
"+. c gray35",
"@. c #615760",
"#. c #645764",
"$. c #685B67",
"%. c #6D5F6C",
"&. c #686868",
"*. c #766E75",
"=. c #776C76",
"-. c #008001",
";. c #008500",
":. c #008505",
">. c #008E07",
",. c #008F07",
"<. c #00A204",
"1. c #00AA04",
"2. c #00AF05",
"3. c #00B205",
"4. c #00C407",
"5. c #00CC05",
"6. c #00C208",
"7. c #00CD09",
"8. c #03CC0C",
"9. c #00D208",
"0. c #00D30A",
"q. c #00D509",
"w. c #00D709",
"e. c #00D50B",
"r. c #01D70C",
"t. c #00DE08",
"y. c #01DD0B",
"u. c #00E50B",
"i. c #00E60B",
"p. c #00E70B",
"a. c #00E80B",
"s. c #02EE0D",
"d. c #00F00A",
"f. c #00F20B",
"g. c #00F50B",
"h. c #00F30C",
"j. c #01F30C",
"k. c #00F60C",
"l. c #00F70C",
"z. c #00FA0C",
"x. c #00FB0C",
"c. c #00FC0C",
"v. c #00FE0C",
"b. c #00FF0C",
"n. c #00FF0D",
"m. c #01FF0D",
"M. c #02FF0E",
"N. c #837882",
"B. c #8A838A",
"V. c #8F868F",
"C. c #938B93",
"Z. c #979396",
"A. c #9E969E",
"S. c #AAAAAA",
"D. c #AEACAE",
"F. c #AEAEAE",
"G. c gray70",
"H. c #B7B7B7",
"J. c #BEBABE",
"K. c #C6BFC5",
"L. c #C2C1C2",
"P. c #C3C0C3",
"I. c #C3C3C3",
"U. c #C5C0C4",
"Y. c #C6C5C6",
"T. c #D4CDD4",
"R. c gray82",
"E. c #D1D2D1",
"W. c #D2D2D2",
"Q. c LightGray",
"!. c gray84",
"~. c #D9D7D9",
"^. c gainsboro",
"/. c #DDDDDD",
"(. c gray87",
"). c #E7E6E7",
"_. c gray91",
"`. c #E9E9E9",
"'. c #EAE9EA",
"]. c #F1F1F1",
"[. c gray95",
"{. c #F7F8F7",
"}. c gray98",
"|. c #FBFCFB",
" X c #FEFEFE",
".X c white",
"XX c None",
/* pixels */
"XXXXXXXXXXXXXXXXXXXXXXXXXXXXXXXXXXXXXXXXXXXXXXXXXXXXXXXXXXXXXX",
"XXXXXXXXXXXXXXXXXXXXXXXXXXXXXXXXXXXXXXXXXXXXXXXXXXXXXXXXXXXXXX",
"XXXXXXXXXXXXXXXXXXXXXXXXXXXXXXXXXXXXXXXXXXXXXXXXXXXXXXXXXXXXXX",
"XXXXXXXXXXXXXXXXXXXXXXXXXXXXXXXXXXXXXXXXXX+ * XXXXXXXXXXXXXXXX",
"XXXXXXXXXXXXXXXXXXXXXXXXXXXXXXXXXXXXXXXX* . 5 * XXXXXXXXXXXXXX",
"XXXXXXXXXXXXXXXXXXXXXXXXXXXXXXXXXXXXXXXX; . &.L . XXXXXXXXXXXX",
"XXXXXXXX. + + + + + + + + + + + + + . & & . !.L.L . XXXXXXXXXX",
"XXXXXX. * v v v h v v v v h v v v M M M h . Y..XH.H . XXXXXXXX",
"XXXXXX& > n.n.n.n.n.n.n.n.n.n.n.b.d.t.5.6.9 U..X.XG.H . XXXXXX",
"XXXXXX. > b.b.b.n.n.b.b.b.b.f.6.{ / S D I H E..X.X.XF.F . XXXX",
"XXXXXX& 3 b.b.b.n.b.b.b.b.9.] A Y *.F.R._._.}..X.X.X.XS.F ; XX",
"XXXXXX. 3 b.b.b.n.b.b.b.2.V U Z.[..X.X.X.X.X.X.X.X.X.X.X+.; . ",
"XXXXXX. 3 b.b.b.b.b.n.<.a #.(..X.X.X.X[.'.).}..X.X.X.XR.T ; . ",
"XXXXXX. > b.b.b.b.b.3.s =.}..X).J.A.N.%.@.X.(..X.X.XR.R . ; XX",
"XXXXXX* > b.b.b.n.e.C $.{.~.V.o.P n ^ ) [ . L..X.XR.Q . ; XXXX",
"XXXXXX. > b.b.n.j.} W L.C.E n ] 1.e.k.n.n.d K..X!.! . . XXXXXX",
"XXXXXX. > b.b.b.7.p  .O.Z ;.e.b.b.b.b.b.b.t T.(.| . ; XXXXXXXX",
"XXXXXX* 3 b.n.g.,.4 e ) 8.n.b.b.b.b.b.b.n.d B.... + XXXXXXXXXX",
"XXXXXX. 3 b.b.u.~ * :.s.n.b.b.b.b.b.b.b.n.b w & . XXXXXXXXXXXX",
"XXXXXX* 3 b.b.0.q >.l.b.n.n.b.b.b.b.b.b.b.{ _ 9 . XXXXXXXXXXXX",
"XXXXXX. 3 b.b.e.` b.b.b.b.b.b.b.b.b.b.b.b.a.l.h + XXXXXXXXXXXX",
"XXXXXX. 3 b.n.f.u.b.b.b.b.b.b.b.b.b.b.b.b.b.n.h + XXXXXXXXXXXX",
"XXXXXX. > b.b.b.b.b.b.b.b.b.b.b.b.b.b.b.b.b.n.h . XXXXXXXXXXXX",
"XXXXXX. 3 b.b.b.b.b.b.b.b.b.b.b.b.b.b.b.b.b.n.h + XXXXXXXXXXXX",
"XXXXXX* 3 b.b.b.b.b.b.b.b.b.b.b.b.b.b.b.b.b.n.h . XXXXXXXXXXXX",
"XXXXXX. 3 b.b.b.b.b.b.b.b.b.b.b.b.b.b.b.b.b.n.h & XXXXXXXXXXXX",
"XXXXXX. 3 n.n.n.b.b.b.b.b.b.b.n.b.b.b.b.n.n.a.u & XXXXXXXXXXXX",
"XXXXXX. & 9 9 9 9 9 9 9 9 9 9 9 9 9 9 7 9 9 8 * . XXXXXXXXXXXX",
"XXXXXXXX. ; . . & . & . . + * & . & . + * . + ; XXXXXXXXXXXXXX",
"XXXXXXXXXXXXXXXXXXXXXXXXXXXXXXXXXXXXXXXXXXXXXXXXXXXXXXXXXXXXXX",
"XXXXXXXXXXXXXXXXXXXXXXXXXXXXXXXXXXXXXXXXXXXXXXXXXXXXXXXXXXXXXX"
};
