/* XPM */
static char * start_osci23_xpm[] = {
"23 23 396 2",
"  	c None",
". 	c #828486",
"+ 	c #646870",
"@ 	c #3F4954",
"# 	c #343E4A",
"$ 	c #3F4955",
"% 	c #63696F",
"& 	c #707171",
"* 	c #8E8F8D",
"= 	c #3A4349",
"- 	c #2C4254",
"; 	c #1C4368",
"> 	c #1C537B",
", 	c #29628D",
"' 	c #2D6691",
") 	c #1E5179",
"! 	c #1A4466",
"~ 	c #2D4558",
"{ 	c #484D51",
"] 	c #8C8C8B",
"^ 	c #45444F",
"/ 	c #27364D",
"( 	c #184871",
"_ 	c #3475A5",
": 	c #64A2CC",
"< 	c #80B9DD",
"[ 	c #93C3E3",
"} 	c #96C6E5",
"| 	c #84B7DB",
"1 	c #63A2D0",
"2 	c #3174A6",
"3 	c #18486F",
"4 	c #273A4D",
"5 	c #727375",
"6 	c #282B34",
"7 	c #122F4F",
"8 	c #246EA2",
"9 	c #5DA2D4",
"0 	c #89C1E4",
"a 	c #93C4DE",
"b 	c #94C4E1",
"c 	c #93C4E4",
"d 	c #93C5E4",
"e 	c #92C5E6",
"f 	c #96C4E0",
"g 	c #8BBFE1",
"h 	c #5BA2D5",
"i 	c #256BA3",
"j 	c #1B384F",
"k 	c #606566",
"l 	c #44444B",
"m 	c #13304C",
"n 	c #206C9D",
"o 	c #60A5D6",
"p 	c #78B7DE",
"q 	c #7BBADE",
"r 	c #7BBADF",
"s 	c #7EBBDE",
"t 	c #7EBADE",
"u 	c #7DBBDE",
"v 	c #7CBBDD",
"w 	c #7CBADD",
"x 	c #78B8DD",
"y 	c #5EA6D3",
"z 	c #216CA0",
"A 	c #1A3950",
"B 	c #6A6A6C",
"C 	c #263A4A",
"D 	c #1A6BA0",
"E 	c #489FD0",
"F 	c #64ADDF",
"G 	c #66AFD9",
"H 	c #6AB2D9",
"I 	c #71B4D7",
"J 	c #66B1DB",
"K 	c #65B3D9",
"L 	c #65B3DA",
"M 	c #66B3D9",
"N 	c #66B2D9",
"O 	c #65B2D9",
"P 	c #61B1DA",
"Q 	c #65AFD2",
"R 	c #4A9ECD",
"S 	c #176DA4",
"T 	c #25394C",
"U 	c #3E424A",
"V 	c #114F73",
"W 	c #2B92C6",
"X 	c #4FA5D5",
"Y 	c #53A9D4",
"Z 	c #50AADA",
"` 	c #77BAD8",
" .	c #C0DFE7",
"..	c #95C5DC",
"+.	c #5BAAD0",
"@.	c #51ACD8",
"#.	c #50AFD7",
"$.	c #52AED6",
"%.	c #53ADD6",
"&.	c #53ACD7",
"*.	c #53AAD5",
"=.	c #4EAAD8",
"-.	c #4BA7D4",
";.	c #2C90C6",
">.	c #114E72",
",.	c #42494E",
"'.	c #193548",
").	c #126FA6",
"!.	c #359DCE",
"~.	c #3EA3D2",
"{.	c #40A5D3",
"].	c #3FA6D4",
"^.	c #6ABADA",
"/.	c #E8F5F2",
"(.	c #EEF6F9",
"_.	c #C2DDEA",
":.	c #76B9D3",
"<.	c #4AABD3",
"[.	c #3FABD7",
"}.	c #3FAAD6",
"|.	c #42A8D4",
"1.	c #41A6D3",
"2.	c #3EA6D5",
"3.	c #359DCF",
"4.	c #1471A1",
"5.	c #2E4758",
"6.	c #0F4B6A",
"7.	c #1586BE",
"8.	c #2A9FD0",
"9.	c #2CA1D0",
"0.	c #2FA2D1",
"a.	c #2FA5D3",
"b.	c #5EB8DA",
"c.	c #E8F6F4",
"d.	c #FCFDFD",
"e.	c #FBFCFE",
"f.	c #E8F3F7",
"g.	c #ABD5E3",
"h.	c #5CB3D3",
"i.	c #3BA8D4",
"j.	c #2FA8D8",
"k.	c #2DA6D4",
"l.	c #2EA4D2",
"m.	c #2EA0D0",
"n.	c #2C9FCF",
"o.	c #1387BE",
"p.	c #164E6D",
"q.	c #626565",
"r.	c #555C60",
"s.	c #0C5B81",
"t.	c #1290C7",
"u.	c #209FD1",
"v.	c #21A0D0",
"w.	c #23A2D2",
"x.	c #23A5D5",
"y.	c #52B8DB",
"z.	c #E6F6F4",
"A.	c #FDFEFD",
"B.	c #FBFEFE",
"C.	c #F8FBFD",
"D.	c #D4E8EF",
"E.	c #8CC9DE",
"F.	c #39A6CC",
"G.	c #22A6D2",
"H.	c #20A4D3",
"I.	c #21A0D1",
"J.	c #249DCE",
"K.	c #1091CC",
"L.	c #0B5C85",
"M.	c #656D6F",
"N.	c #404E54",
"O.	c #086C96",
"P.	c #0B94C8",
"Q.	c #169DD3",
"R.	c #17A2D1",
"S.	c #16A5D3",
"T.	c #16A9D5",
"U.	c #42BDDB",
"V.	c #E6F5F5",
"W.	c #FCFFFD",
"X.	c #FFFFFF",
"Y.	c #FCFEFE",
"Z.	c #F5FBFB",
"`.	c #D1E8F0",
" +	c #77BFD7",
".+	c #33A8CE",
"++	c #14A3D3",
"@+	c #159DD5",
"#+	c #0B93CC",
"$+	c #066B99",
"%+	c #3D4F55",
"&+	c #33464B",
"*+	c #07739B",
"=+	c #0599CA",
"-+	c #0DA0D3",
";+	c #0FA4D3",
">+	c #0EA7D5",
",+	c #0FAAD6",
"'+	c #3CBEDB",
")+	c #E4F5F4",
"!+	c #FDFFFE",
"~+	c #FDFDFE",
"{+	c #FAF9FC",
"]+	c #D9F2F4",
"^+	c #71C3D8",
"/+	c #15A3D3",
"(+	c #0DA0D5",
"_+	c #0698CC",
":+	c #06729E",
"<+	c #31474D",
"[+	c #3E5055",
"}+	c #07749B",
"|+	c #039CCC",
"1+	c #06A2D4",
"2+	c #07A7D6",
"3+	c #08ABD8",
"4+	c #09AED8",
"5+	c #39C1DC",
"6+	c #E4F6F5",
"7+	c #FCFEFD",
"8+	c #F6FBFC",
"9+	c #D0EEF5",
"0+	c #70CDDF",
"a+	c #28B4D3",
"b+	c #07A9D5",
"c+	c #05A4D4",
"d+	c #049BCE",
"e+	c #08739F",
"f+	c #3E5057",
"g+	c #666D71",
"h+	c #0C6A8E",
"i+	c #059FCE",
"j+	c #01A6D7",
"k+	c #01ABD7",
"l+	c #02B1D9",
"m+	c #03B4DB",
"n+	c #37C6E2",
"o+	c #E4F7F6",
"p+	c #F8FCFD",
"q+	c #D3F2F4",
"r+	c #82DCE6",
"s+	c #24BDD7",
"t+	c #04B3DC",
"u+	c #04AFDC",
"v+	c #04A9D7",
"w+	c #03A5D1",
"x+	c #059ED0",
"y+	c #0C688D",
"z+	c #535D63",
"A+	c #66686D",
"B+	c #175F7B",
"C+	c #05A2D0",
"D+	c #01AADC",
"E+	c #01B0DB",
"F+	c #00B6DB",
"G+	c #02BADD",
"H+	c #37CBE2",
"I+	c #E6F7F6",
"J+	c #FBFDFC",
"K+	c #F8FEFE",
"L+	c #E7F9FA",
"M+	c #A4E9EE",
"N+	c #41D0E1",
"O+	c #14C4DF",
"P+	c #02C0DF",
"Q+	c #01BADD",
"R+	c #01B5DC",
"S+	c #01AFD9",
"T+	c #00ACD6",
"U+	c #08A0CE",
"V+	c #195E77",
"W+	c #43494A",
"X+	c #2D535F",
"Y+	c #0A96BB",
"Z+	c #02B0DA",
"`+	c #00B5DD",
" @	c #00BBDE",
".@	c #01C0DF",
"+@	c #38CFE2",
"@@	c #E1F7F6",
"#@	c #EAFBFB",
"$@	c #B7F0F4",
"%@	c #59DDE5",
"&@	c #19D0E6",
"*@	c #09CBE4",
"=@	c #05C8E2",
"-@	c #02C4E3",
";@	c #01BFE1",
">@	c #00BAE0",
",@	c #01AFDA",
"'@	c #0E94B9",
")@	c #2C4E5C",
"!@	c #3E474A",
"~@	c #106D84",
"{@	c #06B4D5",
"]@	c #00BBDC",
"^@	c #03C0DF",
"/@	c #05C5E4",
"(@	c #39D2E4",
"_@	c #B0EFF2",
":@	c #77E4EB",
"<@	c #1FD6E7",
"[@	c #08D5EE",
"}@	c #06D5EE",
"|@	c #08D2ED",
"1@	c #03D1EB",
"2@	c #02CCE7",
"3@	c #03C5E5",
"4@	c #02C0E3",
"5@	c #05B4D9",
"6@	c #136D84",
"7@	c #29313A",
"8@	c #1B414B",
"9@	c #0E9EB7",
"0@	c #06BDDE",
"a@	c #08C6E7",
"b@	c #0CCDE9",
"c@	c #19D5E8",
"d@	c #31DBE9",
"e@	c #18DAEE",
"f@	c #0BDDEE",
"g@	c #0BDEF0",
"h@	c #0ADDEF",
"i@	c #0ADCEE",
"j@	c #09D8EC",
"k@	c #07D3EB",
"l@	c #06CFE8",
"m@	c #08C6E8",
"n@	c #04BEDF",
"o@	c #0EA0B8",
"p@	c #1C414A",
"q@	c #464A4E",
"r@	c #174C5A",
"s@	c #0FA5BA",
"t@	c #0FCBE9",
"u@	c #16D6E9",
"v@	c #18DBEC",
"w@	c #18E1F1",
"x@	c #19E4F1",
"y@	c #19E7F1",
"z@	c #19E8F2",
"A@	c #19E6F0",
"B@	c #1AE3EF",
"C@	c #19DFEE",
"D@	c #18DAED",
"E@	c #16D6EA",
"F@	c #0DCCE5",
"G@	c #0DA5BA",
"H@	c #164D5D",
"I@	c #484A4F",
"J@	c #12515E",
"K@	c #13B2C2",
"L@	c #1BD8EC",
"M@	c #2DDFF1",
"N@	c #32E5F4",
"O@	c #31EAF6",
"P@	c #30EEF7",
"Q@	c #30EFF7",
"R@	c #2FEEF6",
"S@	c #2EECF1",
"T@	c #2FE7F2",
"U@	c #2AE1F3",
"V@	c #1CD7EC",
"W@	c #11B3C2",
"X@	c #16525D",
"Y@	c #2E3038",
"Z@	c #103C45",
"`@	c #148892",
" #	c #1CC5CF",
".#	c #27E6EC",
"+#	c #38EEF7",
"@#	c #3FF5FA",
"##	c #3DF7FA",
"$#	c #3EF5F8",
"%#	c #38EFF5",
"&#	c #29E6EE",
"*#	c #1DC4CE",
"=#	c #168790",
"-#	c #123E48",
";#	c #1A3237",
">#	c #185256",
",#	c #198385",
"'#	c #17A1A4",
")#	c #1CB9BE",
"!#	c #1DBFC2",
"~#	c #1BBABE",
"{#	c #18A0A4",
"]#	c #1C8386",
"^#	c #306164",
"/#	c #3D4A50",
"(#	c #142931",
"_#	c #264C4C",
":#	c #345453",
"<#	c #3E5C5A",
"[#	c #3C4F4D",
"}#	c #373B3A",
"                . + @ # $ % & *               ",
"            = - ; > , ' , ) ! ~ { ]           ",
"        ^ / ( _ : < [ } [ | 1 2 3 4 5         ",
"      6 7 8 9 0 a b c d c e f g h i j k       ",
"    l m n o p q r s s t t u v w x y z A B     ",
"    C D E F G H I J K L K M N O P Q R S T     ",
"  U V W X Y Z `  ...+.@.#.$.%.&.*.=.-.;.>.,.  ",
"  '.).!.~.{.].^./.(._.:.<.[.}.|.1.2.~.3.4.5.  ",
"  6.7.8.9.0.a.b.c.d.e.f.g.h.i.j.k.l.m.n.o.p.q.",
"r.s.t.u.v.w.x.y.z.A.A.B.C.D.E.F.G.H.I.J.K.L.M.",
"N.O.P.Q.R.S.T.U.V.W.X.X.X.Y.Z.`. +.+++@+#+$+%+",
"&+*+=+-+;+>+,+'+)+W.X.X.X.!+~+{+]+^+/+(+_+:+<+",
"[+}+|+1+2+3+4+5+6+7+X.X.X.!+8+9+0+a+b+c+d+e+f+",
"g+h+i+j+k+l+m+n+o+7+A.~+p+q+r+s+t+u+v+w+x+y+z+",
"A+B+C+D+E+F+G+H+I+J+K+L+M+N+O+P+Q+R+S+T+U+V+W+",
"  X+Y+Z+`+ @.@+@@@#@$@%@&@*@=@-@;@>@R+,@'@)@  ",
"  !@~@{@]@^@/@(@_@:@<@[@}@|@1@2@3@4@ @5@6@7@  ",
"    8@9@0@a@b@c@d@e@f@g@h@i@j@k@l@m@n@o@p@    ",
"    q@r@s@t@u@v@w@x@y@z@A@B@C@D@E@F@G@H@I@    ",
"        J@K@L@M@N@O@P@Q@R@S@T@U@V@W@X@Y@      ",
"          Z@`@ #.#+#@###$#%#&#*#=#-#          ",
"            ;#>#,#'#)#!#~#{#]#^#/#            ",
"                  (#_#:#<#[#}#                "};
