/* XPM */
static char * start_osci_dis_xpm[] = {
"23 23 124 2",
"  	c None",
". 	c #6E6E6E",
"+ 	c #585858",
"@ 	c #3E3E3E",
"# 	c #343434",
"$ 	c #5E5E5E",
"% 	c #777777",
"& 	c #373737",
"* 	c #353535",
"= 	c #3F3F3F",
"- 	c #4C4C4C",
"; 	c #4F4F4F",
"> 	c #383838",
", 	c #404040",
"' 	c #757575",
") 	c #303030",
"! 	c #393939",
"~ 	c #5B5B5B",
"{ 	c #7F7F7F",
"] 	c #929292",
"^ 	c #9C9C9C",
"/ 	c #9F9F9F",
"( 	c #939393",
"_ 	c #818181",
": 	c #5A5A5A",
"< 	c #616161",
"[ 	c #262626",
"} 	c #292929",
"| 	c #535353",
"1 	c #808080",
"2 	c #999999",
"3 	c #9B9B9B",
"4 	c #9D9D9D",
"5 	c #989898",
"6 	c #2C2C2C",
"7 	c #3C3C3C",
"8 	c #282828",
"9 	c #828282",
"0 	c #8F8F8F",
"a 	c #919191",
"b 	c #515151",
"c 	c #595959",
"d 	c #2E2E2E",
"e 	c #4E4E4E",
"f 	c #878787",
"g 	c #868686",
"h 	c #898989",
"i 	c #858585",
"j 	c #848484",
"k 	c #2F2F2F",
"l 	c #656565",
"m 	c #7A7A7A",
"n 	c #7C7C7C",
"o 	c #7D7D7D",
"p 	c #8C8C8C",
"q 	c #B1B1B1",
"r 	c #7B7B7B",
"s 	c #787878",
"t 	c #4D4D4D",
"u 	c #6D6D6D",
"v 	c #727272",
"w 	c #737373",
"x 	c #C8C8C8",
"y 	c #CCCCCC",
"z 	c #B3B3B3",
"A 	c #8A8A8A",
"B 	c #747474",
"C 	c #333333",
"D 	c #686868",
"E 	c #696969",
"F 	c #6B6B6B",
"G 	c #6C6C6C",
"H 	c #D4D4D4",
"I 	c #C9C9C9",
"J 	c #A7A7A7",
"K 	c #6A6A6A",
"L 	c #3B3B3B",
"M 	c #676767",
"N 	c #7E7E7E",
"O 	c #C7C7C7",
"P 	c #D5D5D5",
"Q 	c #D2D2D2",
"R 	c #BDBDBD",
"S 	c #979797",
"T 	c #666666",
"U 	c #5C5C5C",
"V 	c #424242",
"W 	c #626262",
"X 	c #636363",
"Y 	c #D6D6D6",
"Z 	c #D0D0D0",
"` 	c #BCBCBC",
" .	c #434343",
"..	c #3D3D3D",
"+.	c #575757",
"@.	c #5D5D5D",
"#.	c #5F5F5F",
"$.	c #606060",
"%.	c #C6C6C6",
"&.	c #C1C1C1",
"*.	c #444444",
"=.	c #BEBEBE",
"-.	c #464646",
";.	c #767676",
">.	c #BFBFBF",
",.	c #D3D3D3",
"'.	c #CACACA",
").	c #A8A8A8",
"!.	c #797979",
"~.	c #3A3A3A",
"{.	c #CBCBCB",
"].	c #AFAFAF",
"^.	c #949494",
"/.	c #2A2A2A",
"(.	c #646464",
"_.	c #545454",
":.	c #6F6F6F",
"<.	c #707070",
"[.	c #242424",
"}.	c #454545",
"|.	c #838383",
"1.	c #252525",
"2.	c #222222",
"3.	c #1D1D1D",
"                . + @ # @ + $ %               ",
"            & * & = - ; - = * > , '           ",
"        @ ) ! ~ { ] ^ / ^ ( _ : ! ) <         ",
"      [ } | 1 2 3 ^ 4 4 4 4 ^ 5 { | 6 |       ",
"    7 8 ; 9 0 a a ] ] ] ] ] a a 0 1 b 6 c     ",
"    d e ' f g f h f i g i g g i j 9 ' e k     ",
"  ! & l m n o p q 3 o o n n o o n r s l & 7   ",
"  } t u v w w f x y z A s B B B w w v u - >   ",
"  C + D E F G 9 x H H I J { v . G F K E + & | ",
"- L ~ l l M D N O P P H Q R S u T T l l U 7 + ",
"@ V + W < W X s O P Y Y Y H Z ` p G < W :  ...",
"#  .+.@.$ #.$.' %.P Y Y Y P P Q &.A < $ + *.# ",
"@  .+.~ @.@.$ B %.H Y Y Y P Z =.p E U ~ + -.@ ",
": , + : : U @.;.O H P P Q >.S E @.@.U + c , - ",
"+ ..c @.U U @.;.x ,.Q '.).!.T $ @.@.~ c c 7 L ",
"  ~.| U @.@.@.;.%.{.z i F X < $.$ @.@.U | !   ",
"  ! @ U U $ W s ].^.u M T M X W < $.@.@.= }   ",
"    /.| #.(.M G ;.u D E D D M l X (.#.| /.    ",
"    @ k _.D F u :.:.:.<.:.:.. u F l | ) =     ",
"        d c . s r n n n r s !.s . + ) /.      ",
"          [.}.X w { |.9 9 N ' X }.1.          ",
"            2.d V e ~ @.~ e  .@ L             ",
"                  3.k ! , ~.k                 "};
