/* XPM */
static char * stop_osci_xpm[] = {
"23 23 396 2",
"  	c None",
". 	c #B0ACAD",
"+ 	c #61666B",
"@ 	c #353E4B",
"# 	c #183442",
"$ 	c #0B2F3F",
"% 	c #163543",
"& 	c #344048",
"* 	c #62656A",
"= 	c #ADADAF",
"- 	c #98999C",
"; 	c #233142",
"> 	c #11425E",
", 	c #146C94",
"' 	c #117FB3",
") 	c #0B8BBF",
"! 	c #0B91C9",
"~ 	c #0A8DC1",
"{ 	c #0D82B2",
"] 	c #156B93",
"^ 	c #133F5D",
"/ 	c #20303F",
"( 	c #979A9B",
"_ 	c #E5E6E4",
": 	c #474E57",
"< 	c #10395A",
"[ 	c #10689C",
"} 	c #0D7EB5",
"| 	c #138BBC",
"1 	c #1B8EBE",
"2 	c #1F8CBE",
"3 	c #1E8AC2",
"4 	c #1C89BC",
"5 	c #1588BA",
"6 	c #1281B7",
"7 	c #0F76B0",
"8 	c #0E659A",
"9 	c #0E3C58",
"0 	c #454E51",
"a 	c #E6E7E3",
"b 	c #E1E3E0",
"c 	c #323A48",
"d 	c #124C73",
"e 	c #1472AA",
"f 	c #1E8EC2",
"g 	c #2090C4",
"h 	c #218EC3",
"i 	c #228CC2",
"j 	c #1E8BC0",
"k 	c #1D89C0",
"l 	c #1A87BD",
"m 	c #1D82B6",
"n 	c #1E80B2",
"o 	c #1D80B1",
"p 	c #167AB2",
"q 	c #1067A4",
"r 	c #104A6D",
"s 	c #2E3946",
"t 	c #E1E3E2",
"u 	c #3C434C",
"v 	c #164770",
"w 	c #1A80B4",
"x 	c #2392C9",
"y 	c #2091C1",
"z 	c #1E8FC3",
"A 	c #1C90C3",
"B 	c #1D94C6",
"C 	c #2195C8",
"D 	c #2296C9",
"E 	c #2093C7",
"F 	c #1C8DBE",
"G 	c #1884B5",
"H 	c #197EB1",
"I 	c #1A7BAE",
"J 	c #1F76AE",
"K 	c #136B9E",
"L 	c #10456D",
"M 	c #3C444A",
"N 	c #818280",
"O 	c #0D3A5A",
"P 	c #1E7CB6",
"Q 	c #1E96C7",
"R 	c #2190C3",
"S 	c #1C93C5",
"T 	c #249BCD",
"U 	c #229CCD",
"V 	c #239DCE",
"W 	c #239CCD",
"X 	c #269BCC",
"Y 	c #208FC3",
"Z 	c #157FB1",
"` 	c #1C75AB",
" .	c #1774AE",
"..	c #1267A2",
"+.	c #0E3257",
"@.	c #808083",
"#.	c #EBE7E8",
"$.	c #15223C",
"%.	c #1873A4",
"&.	c #2193C7",
"*.	c #1E93C0",
"=.	c #2492C3",
"-.	c #2098CD",
";.	c #1E99C9",
">.	c #2498C5",
",.	c #2498C8",
"'.	c #2197CA",
").	c #2198CA",
"!.	c #2397CA",
"~.	c #2398C4",
"{.	c #1C96C8",
"].	c #1A7EB6",
"^.	c #1771A7",
"/.	c #186EA7",
"(.	c #135A97",
"_.	c #152234",
":.	c #EAEAE5",
"<.	c #949497",
"[.	c #133F63",
"}.	c #1F92C4",
"|.	c #1F92C0",
"1.	c #1D92C3",
"2.	c #1F94C5",
"3.	c #2393C5",
"4.	c #1C95C7",
"5.	c #1D95CA",
"6.	c #1E95CB",
"7.	c #1D96C5",
"8.	c #1D95CD",
"9.	c #1997CA",
"0.	c #2092CD",
"a.	c #2294C1",
"b.	c #2192C6",
"c.	c #1879AF",
"d.	c #196EA3",
"e.	c #1766A2",
"f.	c #10355A",
"g.	c #969492",
"h.	c #474F56",
"i.	c #1F709A",
"j.	c #1D94C4",
"k.	c #1F90C2",
"l.	c #1E90C2",
"m.	c #1F91C2",
"n.	c #1F90C3",
"o.	c #2290C1",
"p.	c #6AAFD0",
"q.	c #ABD4E1",
"r.	c #AFD6E3",
"s.	c #A8D5E1",
"t.	c #6CB1CD",
"u.	c #1F90C6",
"v.	c #228FC3",
"w.	c #1E90C4",
"x.	c #218BBE",
"y.	c #176EA4",
"z.	c #1868A2",
"A.	c #1B5384",
"B.	c #494D57",
"C.	c #22303D",
"D.	c #238ABC",
"E.	c #1E91C1",
"F.	c #1F8DC2",
"G.	c #1E8DBF",
"H.	c #1E8DC0",
"I.	c #1D8DC2",
"J.	c #4B9DBD",
"K.	c #F1F9FB",
"L.	c #FBFCFB",
"M.	c #FEFEFE",
"N.	c #FEFDFE",
"O.	c #FAFDFC",
"P.	c #F3FAFA",
"Q.	c #44A2C0",
"R.	c #1E8CC2",
"S.	c #1C8EC1",
"T.	c #1D8EBE",
"U.	c #1D77AD",
"V.	c #1567A0",
"W.	c #195F99",
"X.	c #242F41",
"Y.	c #0D2432",
"Z.	c #208EC1",
"`.	c #1E8EBB",
" +	c #1A88BC",
".+	c #1C87BB",
"++	c #1D88BC",
"@+	c #1E86BC",
"#+	c #5FAAC2",
"$+	c #FBFCFC",
"%+	c #FCFEFE",
"&+	c #FFFFFF",
"*+	c #FFFEFC",
"=+	c #FEFEFC",
"-+	c #62A9CB",
";+	c #1E87BA",
">+	c #1E87BC",
",+	c #1C81B7",
"'+	c #12649D",
")+	c #166097",
"!+	c #0C1D30",
"~+	c #132D3B",
"{+	c #1F8CC0",
"]+	c #208AB9",
"^+	c #1984B9",
"/+	c #1A83B7",
"(+	c #1A84B8",
"_+	c #1B82B9",
":+	c #5DA8C0",
"<+	c #FBFDFC",
"[+	c #FEFEFB",
"}+	c #61A8CA",
"|+	c #1C83B6",
"1+	c #1D82B8",
"2+	c #1C82B8",
"3+	c #1C80B6",
"4+	c #166096",
"5+	c #0B1E31",
"6+	c #132F3B",
"7+	c #208ABF",
"8+	c #2286B7",
"9+	c #197EB5",
"0+	c #197EB4",
"a+	c #5BA6BE",
"b+	c #FBFDFD",
"c+	c #5FA5C7",
"d+	c #197FB3",
"e+	c #1A7DB4",
"f+	c #1B7CB4",
"g+	c #11639C",
"h+	c #135D93",
"i+	c #0D1F32",
"j+	c #2C3D45",
"k+	c #2385BC",
"l+	c #2183B8",
"m+	c #197AB1",
"n+	c #1979AF",
"o+	c #61A2BE",
"p+	c #FCFDFA",
"q+	c #FCFFFC",
"r+	c #FDFEFD",
"s+	c #FEFEFD",
"t+	c #FCFEFC",
"u+	c #FDFEF8",
"v+	c #60A1BF",
"w+	c #137BB2",
"x+	c #1A79AF",
"y+	c #1978AD",
"z+	c #105F9D",
"A+	c #155A92",
"B+	c #25333E",
"C+	c #4A5254",
"D+	c #267CA7",
"E+	c #1C84B9",
"F+	c #1877AE",
"G+	c #1874AB",
"H+	c #1775AC",
"I+	c #5896B6",
"J+	c #F6FFFE",
"K+	c #FAFEFB",
"L+	c #FAFEFC",
"M+	c #FBFEFD",
"N+	c #F9FEFD",
"O+	c #F8FEFC",
"P+	c #5797B6",
"Q+	c #1675AB",
"R+	c #166EA6",
"S+	c #0E5B98",
"T+	c #195381",
"U+	c #484E54",
"V+	c #959697",
"W+	c #1F5874",
"X+	c #1A82B8",
"Y+	c #1A77AD",
"Z+	c #156FA6",
"`+	c #156FA7",
" @	c #1370AB",
".@	c #216E9D",
"+@	c #ABCAD6",
"@@	c #F2F5F2",
"#@	c #F3F9F7",
"$@	c #F3F5F5",
"%@	c #B2C9D4",
"&@	c #1F6E9E",
"*@	c #1470A8",
"=@	c #166FA7",
"-@	c #1A6DA7",
";@	c #16639E",
">@	c #0F5991",
",@	c #153D5D",
"'@	c #939395",
")@	c #EBE6E8",
"!@	c #1B323F",
"~@	c #217DAF",
"{@	c #1B7AB0",
"]@	c #146DA2",
"^@	c #1869A3",
"/@	c #146AA2",
"(@	c #1669A0",
"_@	c #156398",
":@	c #226498",
"<@	c #266398",
"[@	c #266298",
"}@	c #21629B",
"|@	c #186299",
"1@	c #146AA5",
"2@	c #166AA4",
"3@	c #18689F",
"4@	c #115A95",
"5@	c #14578D",
"6@	c #132638",
"7@	c #808380",
"8@	c #1D5172",
"9@	c #1A7BB1",
"0@	c #1177B0",
"a@	c #1564A2",
"b@	c #13659D",
"c@	c #14639E",
"d@	c #13639E",
"e@	c #13639D",
"f@	c #15639B",
"g@	c #1663A0",
"h@	c #1563A1",
"i@	c #0E5D9A",
"j@	c #105794",
"k@	c #123759",
"l@	c #808284",
"m@	c #3D4853",
"n@	c #236187",
"o@	c #1478AE",
"p@	c #176DAA",
"q@	c #116198",
"r@	c #125F9B",
"s@	c #125F9A",
"t@	c #135F98",
"u@	c #135E9A",
"v@	c #165E98",
"w@	c #125B9A",
"x@	c #115697",
"y@	c #1A4473",
"z@	c #40444C",
"A@	c #E0E2E0",
"B@	c #303D45",
"C@	c #1D5F7D",
"D@	c #1B70A7",
"E@	c #166BA6",
"F@	c #135F9B",
"G@	c #105A96",
"H@	c #115995",
"I@	c #135994",
"J@	c #125995",
"K@	c #125996",
"L@	c #125994",
"M@	c #115592",
"N@	c #15436F",
"O@	c #313B43",
"P@	c #E4E2E2",
"Q@	c #E6E5E5",
"R@	c #474C52",
"S@	c #18415E",
"T@	c #1C689D",
"U@	c #196AA3",
"V@	c #13679F",
"W@	c #14609C",
"X@	c #145A98",
"Y@	c #135996",
"Z@	c #125895",
"`@	c #0F5A95",
" #	c #115B94",
".#	c #13598E",
"+#	c #175486",
"@#	c #113250",
"##	c #484C4F",
"$#	c #E6E5E1",
"%#	c #96969D",
"&#	c #232E40",
"*#	c #193B5B",
"=#	c #1D5B84",
"-#	c #196397",
";#	c #186097",
">#	c #176096",
",#	c #145C93",
"'#	c #19598E",
")#	c #1B4C79",
"!#	c #143250",
"~#	c #232E3E",
"{#	c #9D9B9D",
"]#	c #ACABAA",
"^#	c #5D6368",
"/#	c #323947",
"(#	c #17273B",
"_#	c #0D1E32",
":#	c #18283C",
"<#	c #323A43",
"[#	c #626366",
"}#	c #AFAEAD",
"              . + @ # $ % & * =               ",
"          - ; > , ' ) ! ~ { ] ^ / (           ",
"      _ : < [ } | 1 2 3 4 5 6 7 8 9 0 a       ",
"    b c d e f g h i j k l m n o p q r s t     ",
"    u v w x y z A B C D E F G H I J K L M     ",
"  N O P Q R S D T U V V V W X Y Z `  ...+.@.  ",
"#.$.%.&.*.=.-.;.>.,.'.).).!.~.!.{.].^./.(._.:.",
"<.[.}.|.1.2.3.4.5.6.7.7.7.8.9.0.a.b.c.d.e.f.g.",
"h.i.j.k.l.m.n.o.p.q.r.r.r.s.t.u.v.w.x.y.z.A.B.",
"C.D.E.F.G.H.I.J.K.L.M.N.N.O.P.Q.R.S.T.U.V.W.X.",
"Y.Z.`. +.+++@+#+$+%+&+&+&+*+=+-+;+>+>+,+'+)+!+",
"~+{+]+^+/+(+_+:+<+%+&+&+&+*+[+}+|+1+2+3+'+4+5+",
"6+7+8+9+0+0+9+a+b+%+&+&+&+*+[+c+d+e+e+f+g+h+i+",
"j+k+l+m+n+n+p o+p+q+r+s+s+t+u+v+w+x+n+y+z+A+B+",
"C+D+E+F+G+G+H+I+J+K+L+L+M+N+O+P+Q+G+G+R+S+T+U+",
"V+W+X+Y+Z+`+ @.@+@@@#@#@#@$@%@&@*@=@-@;@>@,@'@",
")@!@~@{@]@^@/@(@_@:@<@[@[@}@|@1@z.2@3@4@5@6@  ",
"  7@8@9@0@a@b@c@d@e@f@f@f@;@;@;@g@h@i@j@k@l@  ",
"    m@n@o@p@q@r@r@s@t@t@t@u@u@u@v@w@x@y@z@    ",
"    A@B@C@D@E@F@G@H@I@I@I@J@J@K@L@M@N@O@P@    ",
"      Q@R@S@T@U@V@W@X@Y@Z@`@ #.#+#@###$#      ",
"          %#&#*#=#-#;#>#,#'#)#!#~#{#          ",
"              ]#^#/#(#_#:#<#[#}#              "};
