/* XPM */
static char * stop_acq_xpm[] = {
"23 23 209 2",
"  	c None",
". 	c #A32020",
"+ 	c #A72424",
"@ 	c #A71717",
"# 	c #A31313",
"$ 	c #A71818",
"% 	c #A41F1F",
"& 	c #AA2B2B",
"* 	c #9B1414",
"= 	c #AF1919",
"- 	c #C92323",
"; 	c #D62727",
"> 	c #DB2B2B",
", 	c #DD3030",
"' 	c #DC2C2C",
") 	c #D72727",
"! 	c #AD1919",
"~ 	c #9E1B1B",
"{ 	c #B33535",
"] 	c #9E1717",
"^ 	c #A81818",
"/ 	c #C42424",
"( 	c #D22A2A",
"_ 	c #DB2F2F",
": 	c #DE3232",
"< 	c #DD3232",
"[ 	c #DD3131",
"} 	c #DD2F2F",
"| 	c #D82828",
"1 	c #D02626",
"2 	c #C12424",
"3 	c #A01D1D",
"4 	c #960F0F",
"5 	c #B11F1F",
"6 	c #CA2A2A",
"7 	c #DD3434",
"8 	c #DF3535",
"9 	c #DF3434",
"0 	c #DE3333",
"a 	c #DD2D2D",
"b 	c #DB2A2A",
"c 	c #DB2929",
"d 	c #DB2828",
"e 	c #D62626",
"f 	c #C52525",
"g 	c #AE1F1F",
"h 	c #991414",
"i 	c #9D1818",
"j 	c #AF1F1F",
"k 	c #D33030",
"l 	c #E03838",
"m 	c #DE3434",
"n 	c #DF3838",
"o 	c #E03A3A",
"p 	c #D92626",
"q 	c #D82626",
"r 	c #D62525",
"s 	c #C72525",
"t 	c #AB1E1E",
"u 	c #9D1717",
"v 	c #A42323",
"w 	c #A51919",
"x 	c #D23030",
"y 	c #E03939",
"z 	c #DF3636",
"A 	c #E03B3B",
"B 	c #E23F3F",
"C 	c #E24040",
"D 	c #D72828",
"E 	c #D32626",
"F 	c #D22525",
"G 	c #A21717",
"H 	c #A72727",
"I 	c #991212",
"J 	c #CA2D2D",
"K 	c #E13C3C",
"L 	c #E13B3B",
"M 	c #D72B2B",
"N 	c #CF2525",
"O 	c #CC2525",
"P 	c #BC2323",
"Q 	c #981212",
"R 	c #A82222",
"S 	c #AB1B1B",
"T 	c #DF3737",
"U 	c #D32929",
"V 	c #C62525",
"W 	c #A41919",
"X 	c #C92C2C",
"Y 	c #DF3333",
"Z 	c #E96F6F",
"` 	c #F2ACAC",
" .	c #F2B1B1",
"..	c #F2B2B2",
"+.	c #F1ACAC",
"@.	c #E97171",
"#.	c #CB2525",
"$.	c #C82525",
"%.	c #B92121",
"&.	c #A02020",
"*.	c #A31E1E",
"=.	c #DB3535",
"-.	c #DD3333",
";.	c #E25454",
">.	c #FCEDED",
",.	c #FDF5F5",
"'.	c #FDF8F8",
").	c #FDF6F6",
"!.	c #FCEFEF",
"~.	c #E35454",
"{.	c #D22929",
"].	c #C52424",
"^.	c #C02525",
"/.	c #A31F1F",
"(.	c #9D1111",
"_.	c #DD2E2E",
":.	c #E46A6A",
"<.	c #FEFBFB",
"[.	c #FEFCFC",
"}.	c #FDF9F9",
"|.	c #E46C6C",
"1.	c #D92C2C",
"2.	c #C22525",
"3.	c #BF2424",
"4.	c #970F0F",
"5.	c #A21515",
"6.	c #DC2B2B",
"7.	c #E36868",
"8.	c #E36C6C",
"9.	c #DA2A2A",
"0.	c #C22424",
"a.	c #DE3131",
"b.	c #DA2727",
"c.	c #D92727",
"d.	c #E16767",
"e.	c #FDF7F7",
"f.	c #E16A6A",
"g.	c #BB2525",
"h.	c #981010",
"i.	c #AD2222",
"j.	c #D72525",
"k.	c #DF6868",
"l.	c #D72626",
"m.	c #BD2525",
"n.	c #BB2424",
"o.	c #A42020",
"p.	c #9E1A1A",
"q.	c #D72C2C",
"r.	c #D42626",
"s.	c #D12626",
"t.	c #DA5E5E",
"u.	c #D95E5E",
"v.	c #B92525",
"w.	c #B62323",
"x.	c #9F1E1E",
"y.	c #AA2525",
"z.	c #C02121",
"A.	c #CA2B2B",
"B.	c #EAABAB",
"C.	c #FBE8E8",
"D.	c #FCEEEE",
"E.	c #FBE9E9",
"F.	c #EAAEAE",
"G.	c #CB2A2A",
"H.	c #CD2525",
"I.	c #C32525",
"J.	c #B72424",
"K.	c #A91B1B",
"L.	c #AB2B2B",
"M.	c #A41616",
"N.	c #D92A2A",
"O.	c #CA2525",
"P.	c #C92525",
"Q.	c #C32B2B",
"R.	c #C22C2C",
"S.	c #C22A2A",
"T.	c #C32424",
"U.	c #BA2525",
"V.	c #B82424",
"W.	c #9A1313",
"X.	c #A62424",
"Y.	c #BC1E1E",
"Z.	c #D12525",
"`.	c #A51F1F",
" +	c #9F1818",
".+	c #C72222",
"++	c #D22727",
"@+	c #BE2424",
"#+	c #BD2424",
"$+	c #A11D1D",
"%+	c #C42121",
"&+	c #CF2626",
"*+	c #BE2525",
"=+	c #B62424",
"-+	c #AC1E1E",
";+	c #9E1818",
">+	c #9C1515",
",+	c #B11919",
"'+	c #BA2424",
")+	c #B82525",
"!+	c #9F1B1B",
"~+	c #AC1919",
"{+	c #BF2222",
"]+	c #B32121",
"^+	c #A31717",
"/+	c #9D1C1C",
"(+	c #A32222",
"_+	c #A01414",
":+	c #9F1C1C",
"                . + @ # $ + %                 ",
"          & * = - ; > , ' ) - ! ~ {           ",
"        ] ^ / ( _ : < [ } ' | 1 2 ^ 3         ",
"      4 5 6 7 8 9 0 < , a b c d e f g h       ",
"    i j k l 8 0 m n o o l : c p q r s t u     ",
"  v w x y z 8 A B B C C C C C 8 D E F f G H   ",
"  I J l z l K L K K L L K K L K l M N O P Q   ",
"R S T z z l l l l y l l l y l l y T U O V W   ",
"~ X T 9 Y 9 9 z Z `  ... .+.@.z 8 9 < #.$.%.&.",
"*.=.9 0 -.-.0 ;.>.,.'.'.'.).!.~.: -.0 {.].^./.",
"(.m < _._._._.:.,.'.<.[.[.}.}.|._._._.1.2.3.4.",
"5.: , > b 6.b 7.).'.[.[.[.}.}.8.> > > 9.0.3.4.",
"5.a._.b.b.b.c.d.e.'.[.[.[.}.}.f.c.c.c.p ^.g.h.",
"i.} ' j.j.j.e k.e.'.}.}.}.'.e.k.e l.j.r m.n.o.",
"p.q.' r.s.1 s.t.).e.e.e.e.e.).u.s.1 1 O v.w.x.",
"y.z.b r.O O O A.B.C.>.D.>.E.F.G.O O H.I.J.K.L.",
"  M.N.l.O.P.$.s 0.Q.R.R.R.S.T.$.$.P.s U.V.W.  ",
"  X.Y.q Z.I.2.2.2.2.2.2.2.2.2.2.2.I.g.J.w `.  ",
"     +.+++#.@+#+#+@+#+#+#+#+#+#+#+n.J.g p.    ",
"      $+%+&+O.*+v.v.v.v.v.v.v.v.v.=+-+;+      ",
"        >+,+P.O.f 3.n.'+V.V.U.)+=+G !+        ",
"          y.W.~+{+0.^.3.n.'+]+^+/+            ",
"                $+(+_+h._+&.:+                "};
